<svg width="323" height="71" viewBox="0 0 323 71" fill="none" xmlns="http://www.w3.org/2000/svg">
<path d="M16.2 51.56C9.90667 48.6267 5.45333 43.9867 2.84 37.64C1.50667 34.28 0.84 30.76 0.84 27.08C0.84 16.8933 4.73333 9.29333 12.52 4.28C16.84 1.61333 21.3733 0.279997 26.12 0.279997C28.84 0.279997 31.6133 0.679996 34.44 1.48C37.2667 2.22666 39.2667 3.10666 40.44 4.12C42.5733 6.04 42.8933 7.88 41.4 9.64C40.4933 10.5467 39.4267 10.92 38.2 10.76C37.0267 10.6 36.12 9.98667 35.48 8.92C34.36 6.84 33 5.16 31.4 3.88C29.8 2.6 28.0933 1.96 26.28 1.96C23.2933 1.96 20.4667 3.10667 17.8 5.4C15.1333 7.64 13 10.68 11.4 14.52C9.8 18.36 9 22.4933 9 26.92C9 29.9067 9.29333 32.76 9.88 35.48C10.7867 39.8533 12.4933 43.5333 15 46.52C17.5067 49.72 21.2667 51.32 26.28 51.32C32.4133 51.32 37.88 49.32 42.68 45.32L43.96 46.84C38.84 51.32 32.5467 53.56 25.08 53.56C21.9867 53.56 19.0267 52.8933 16.2 51.56ZM86.545 51.56V52.52H71.185V51.56H71.905C74.305 51.56 75.505 49.8533 75.505 46.44V26.92C75.5583 24.7867 74.8917 22.84 73.505 21.08C72.7583 20.2267 71.7717 19.5867 70.545 19.16C69.3717 18.7333 68.2783 18.52 67.265 18.52C66.2517 18.52 65.1317 18.7333 63.905 19.16C62.7317 19.5867 61.7717 20.2267 61.025 21.08C59.6917 22.7333 59.025 24.68 59.025 26.92V46.28C59.025 47.88 59.265 49.16 59.745 50.12C60.225 51.08 61.185 51.56 62.625 51.56H63.265V52.52H47.905V51.56H48.545C50.9983 51.56 52.225 49.8533 52.225 46.44V7C52.225 3.58666 50.9983 1.88 48.545 1.88H47.905V0.919998H59.025V21.56L60.065 20.36C62.6783 17.5867 65.985 16.2 69.985 16.2L70.625 16.12C75.8517 16.12 79.3983 18.36 81.265 22.84C81.8517 24.3867 82.1983 26.1733 82.305 28.2V46.84C82.4117 49.9867 83.6117 51.56 85.905 51.56H86.545ZM124.136 51.56V52.52H117.176C116.589 52.52 115.949 52.3867 115.256 52.12C114.296 51.7467 113.576 50.9733 113.096 49.8C113.042 49.64 112.989 49.5067 112.936 49.4C112.882 49.2933 112.856 49.16 112.856 49L112.616 47.48C112.562 47.5867 112.536 47.6933 112.536 47.8C112.376 48.3333 111.842 49 110.936 49.8C110.029 50.5467 109.256 51.1333 108.616 51.56C108.029 51.9333 106.989 52.3333 105.496 52.76C104.002 53.1867 102.669 53.4 101.496 53.4C99.3623 53.4 97.309 52.7333 95.3356 51.4C92.8823 49.5867 91.6556 46.92 91.6556 43.4C91.6556 41.16 92.1623 39.2667 93.1756 37.72C94.2423 36.12 95.6023 34.92 97.2556 34.12C100.936 32.4133 104.536 31.6667 108.056 31.88C110.509 32.04 112.162 32.1733 113.016 32.28V25.64C113.016 23.2933 112.562 21.3733 111.656 19.88C110.802 18.3333 109.496 17.56 107.736 17.56C106.029 17.56 104.589 18.2533 103.416 19.64C102.296 21.0267 101.496 22.7867 101.016 24.92C100.856 25.7733 100.349 26.2 99.4956 26.2H95.6556C95.1223 26.2 94.6956 26.0133 94.3756 25.64C94.109 25.2133 94.0023 24.7333 94.0556 24.2C94.589 21.7467 96.1356 19.7733 98.6956 18.28C101.256 16.7333 103.896 15.96 106.616 15.96C115.416 15.96 119.816 19.6933 119.816 27.16V46.52C119.816 49.88 121.016 51.56 123.416 51.56H124.136ZM112.536 33.8L110.936 33.64C110.509 33.64 109.816 33.64 108.856 33.64C106.616 33.5333 104.696 33.9067 103.096 34.76C101.496 35.6133 100.322 36.6267 99.5756 37.8C98.829 38.9733 98.4556 40.76 98.4556 43.16C98.4556 45.56 99.0156 47.4267 100.136 48.76C101.309 50.0933 102.856 50.76 104.776 50.76C108.082 50.76 110.376 49.0533 111.656 45.64C112.562 43.2933 113.016 40.7333 113.016 37.96V33.88C112.909 33.8267 112.749 33.8 112.536 33.8ZM143.69 51.56V52.52H128.33V51.56H128.97C131.423 51.56 132.65 49.8533 132.65 46.44V7C132.65 3.58666 131.45 1.88 129.05 1.88H128.33V0.919998H139.45L139.37 46.44C139.37 49.8533 140.597 51.56 143.05 51.56H143.69ZM163.278 51.56V52.52H147.918V51.56H148.558C151.011 51.56 152.238 49.8533 152.238 46.44V7C152.238 3.58666 151.038 1.88 148.638 1.88H147.918V0.919998H159.038L158.958 46.44C158.958 49.8533 160.184 51.56 162.638 51.56H163.278ZM202.568 35.08H174.328C174.541 41.64 176.274 46.5467 179.528 49.8C181.288 51.4 182.914 52.2 184.408 52.2C184.621 52.2 184.834 52.2 185.048 52.2C190.914 52.2 195.581 49.24 199.048 43.32C199.901 41.7733 200.408 40.52 200.568 39.56H201.848C201.048 42.8133 199.528 45.5867 197.288 47.88C193.768 51.56 189.608 53.4 184.808 53.4C180.008 53.4 175.928 51.64 172.568 48.12C169.261 44.6 167.608 40.2267 167.608 35C167.608 29.7733 169.261 25.32 172.568 21.64C175.928 17.96 180.194 16.12 185.368 16.12C190.541 16.12 194.648 17.7733 197.688 21.08C200.781 24.3867 202.408 28.84 202.568 34.44V35.08ZM195.768 33.72C195.768 29.1867 194.728 25.2933 192.648 22.04C190.568 18.7867 188.034 17.16 185.048 17.16C183.021 17.16 181.208 17.96 179.608 19.56C178.008 21.1067 176.728 23.16 175.768 25.72C174.861 28.2267 174.381 30.8933 174.328 33.72H195.768ZM245.426 51.56V52.52H239.906C238.306 52.52 236.946 51.9867 235.826 50.92C234.759 49.8 234.226 48.4667 234.226 46.92V26.92C234.226 24.8933 233.506 23 232.066 21.24C230.572 19.48 228.679 18.6 226.386 18.6C224.092 18.6 222.092 19.6667 220.386 21.8C218.679 23.88 217.826 25.5867 217.826 26.92L217.906 46.44C217.906 49.8533 219.106 51.56 221.506 51.56H222.146V52.52H206.786V51.56H207.426C209.879 51.56 211.106 49.8533 211.106 46.44V23.08C211.106 19.6667 209.879 17.96 207.426 17.96H206.786V17H217.826V21.48C218.892 20.2 220.306 19.0533 222.066 18.04C223.879 16.9733 225.906 16.44 228.146 16.44C230.386 16.44 232.386 16.8133 234.146 17.56C235.959 18.2533 237.346 19.1867 238.306 20.36C240.172 22.76 241.106 25.24 241.106 27.8V46.44C241.106 49.8533 242.332 51.56 244.786 51.56H245.426ZM261.091 46.84L265.971 46.6H267.811C272.397 46.6 275.944 47.56 278.451 49.48C281.437 51.88 282.931 54.3067 282.931 56.76C282.931 62.4133 280.771 66.3867 276.451 68.68C273.944 70.0667 270.851 70.76 267.171 70.76C263.491 70.76 260.451 70.3333 258.051 69.48C253.571 67.88 251.037 65.4267 250.451 62.12C250.237 60.68 250.531 59.2933 251.331 57.96C252.131 56.6267 253.277 55.48 254.771 54.52L256.131 53.64L254.611 53.32C253.224 53 252.131 52.3067 251.331 51.24C250.584 50.12 250.264 48.7333 250.371 47.08C250.477 45.4267 251.144 43.9067 252.371 42.52C253.597 41.08 255.277 40.04 257.411 39.4L258.531 39.08L257.571 38.28C256.291 37.32 255.171 36.0133 254.211 34.36C253.304 32.7067 252.851 30.8667 252.851 28.84C252.851 25.2133 254.184 22.2 256.851 19.8C259.357 17.3467 262.744 16.12 267.011 16.12C267.917 16.12 269.171 16.28 270.771 16.6L270.931 16.12C272.531 12.0133 274.077 9.26666 275.571 7.88C277.064 6.49333 278.371 5.8 279.491 5.8H281.251L281.331 11.24H278.531C277.251 11.24 276.024 11.7467 274.851 12.76C273.677 13.7733 272.851 14.92 272.371 16.2L272.051 16.84L272.691 17.08C278.131 18.84 280.851 22.6533 280.851 28.52C280.851 31.9333 279.437 34.9733 276.611 37.64C273.997 39.9333 270.664 41.1333 266.611 41.24C263.944 41.24 261.517 40.68 259.331 39.56C259.117 39.3467 258.477 39.64 257.411 40.44C256.397 41.24 255.731 41.88 255.411 42.36C255.091 42.84 255.011 43.5067 255.171 44.36C255.597 45.7467 256.637 46.52 258.291 46.68C259.144 46.7867 260.077 46.84 261.091 46.84ZM261.091 20.36C259.544 22.7067 258.771 25.48 258.771 28.68C258.771 31.8267 259.517 34.5733 261.011 36.92C262.557 39.2133 264.451 40.36 266.691 40.36C268.984 40.36 270.931 39.2133 272.531 36.92C274.024 34.6267 274.771 31.88 274.771 28.68C274.771 25.4267 273.997 22.6533 272.451 20.36C270.904 18.0133 269.011 16.84 266.771 16.84C264.531 16.84 262.637 18.0133 261.091 20.36ZM277.171 65.56C278.877 63.3733 279.464 60.76 278.931 57.72C278.611 56.44 278.077 55.4267 277.331 54.68C276.637 53.8267 275.731 53.4 274.611 53.4H259.731C258.717 53.5067 257.864 53.96 257.171 54.76C255.571 56.5733 254.931 58.8933 255.251 61.72C255.517 64.92 257.197 67.24 260.291 68.68C262.051 69.4267 264.211 69.8 266.771 69.8C271.517 69.8 274.984 68.3867 277.171 65.56ZM322.502 35.08H294.262C294.475 41.64 296.209 46.5467 299.462 49.8C301.222 51.4 302.849 52.2 304.342 52.2C304.555 52.2 304.769 52.2 304.982 52.2C310.849 52.2 315.515 49.24 318.982 43.32C319.835 41.7733 320.342 40.52 320.502 39.56H321.782C320.982 42.8133 319.462 45.5867 317.222 47.88C313.702 51.56 309.542 53.4 304.742 53.4C299.942 53.4 295.862 51.64 292.502 48.12C289.195 44.6 287.542 40.2267 287.542 35C287.542 29.7733 289.195 25.32 292.502 21.64C295.862 17.96 300.129 16.12 305.302 16.12C310.475 16.12 314.582 17.7733 317.622 21.08C320.715 24.3867 322.342 28.84 322.502 34.44V35.08ZM315.702 33.72C315.702 29.1867 314.662 25.2933 312.582 22.04C310.502 18.7867 307.969 17.16 304.982 17.16C302.955 17.16 301.142 17.96 299.542 19.56C297.942 21.1067 296.662 23.16 295.702 25.72C294.795 28.2267 294.315 30.8933 294.262 33.72H315.702Z" fill="black"/>
</svg>
