
<svg width="379" height="76" viewBox="0 0 379 76" fill="none" xmlns="http://www.w3.org/2000/svg">
<path d="M50.04 75.52C46.2 75.52 43 74.88 40.44 73.6C37.9333 72.3733 35.9067 70.72 34.36 68.64C32.8667 66.56 31.8 64.24 31.16 61.68C30.52 59.0667 30.2 56.4 30.2 53.68C30.2 49.0933 31.08 44.5867 32.84 40.16C34.6 35.7333 37 31.5467 40.04 27.6C43.08 23.6 46.5467 19.9467 50.44 16.64C54.3333 13.28 58.4133 10.3733 62.68 7.92C66.9467 5.46666 71.1867 3.57333 75.4 2.24C79.6133 0.853331 83.56 0.159997 87.24 0.159997C89.16 0.159997 91 0.53333 92.76 1.28C94.52 1.97333 95.96 3.14666 97.08 4.8C98.2 6.4 98.76 8.56 98.76 11.28C98.76 14.64 98.0933 18.08 96.76 21.6C95.48 25.12 93.72 28.56 91.48 31.92C89.24 35.28 86.7067 38.4533 83.88 41.44C81.1067 44.3733 78.2267 46.96 75.24 49.2C72.2533 51.44 69.3467 53.2 66.52 54.48C63.7467 55.76 61.2133 56.4 58.92 56.4C57 56.4 55.32 55.68 53.88 54.24C52.44 52.8 51.72 50.64 51.72 47.76C51.72 45.3067 52.2267 42.7467 53.24 40.08C54.2533 37.4133 55.6133 34.7733 57.32 32.16C59.0267 29.5467 60.92 27.0933 63 24.8C65.1333 22.5067 67.2667 20.4533 69.4 18.64C71.5867 16.8267 73.64 15.4133 75.56 14.4C77.48 13.3867 79.1067 12.88 80.44 12.88C81.7733 12.88 82.8133 13.2267 83.56 13.92C84.36 14.6133 84.76 15.5733 84.76 16.8C84.76 19.04 83.96 21.4933 82.36 24.16C80.76 26.8267 78.5467 29.5467 75.72 32.32C72.8933 35.04 69.5867 37.6533 65.8 40.16C62.0667 42.6667 58.0133 44.9067 53.64 46.88C49.32 48.8533 44.8667 50.4267 40.28 51.6C35.6933 52.7733 31.1333 53.36 26.6 53.36C23.0267 53.36 19.64 52.96 16.44 52.16C13.24 51.36 10.44 50.2133 8.04 48.72C5.58667 47.2267 3.66667 45.4667 2.28 43.44C0.893333 41.36 0.199999 39.0667 0.199999 36.56C0.199999 33.2 1.16 30.16 3.08 27.44C4.94667 24.6667 7.61333 22.2933 11.08 20.32C14.5467 18.3467 18.6 16.8267 23.24 15.76C27.9333 14.6933 33.0267 14.16 38.52 14.16C44.4933 14.16 50.28 14.9067 55.88 16.4C61.48 17.8933 66.68 19.9467 71.48 22.56C76.3333 25.12 80.5467 28.0533 84.12 31.36L83.8 31.84C80.2267 28.5333 76.04 25.6 71.24 23.04C66.44 20.48 61.2667 18.4533 55.72 16.96C50.1733 15.4667 44.44 14.72 38.52 14.72C33.2933 14.72 28.3867 15.2533 23.8 16.32C19.2667 17.3333 15.2667 18.8 11.8 20.72C8.33333 22.64 5.64 24.96 3.72 27.68C1.74667 30.3467 0.759999 33.3333 0.759999 36.64C0.759999 39.8933 1.96 42.7467 4.36 45.2C6.70667 47.6 9.85333 49.4667 13.8 50.8C17.7467 52.1333 22.0667 52.8 26.76 52.8C31.1333 52.8 35.5867 52.24 40.12 51.12C44.6533 49.9467 49.0533 48.4 53.32 46.48C57.64 44.5067 61.64 42.2933 65.32 39.84C69.0533 37.3333 72.3333 34.7467 75.16 32.08C77.9867 29.36 80.2 26.6933 81.8 24.08C83.4 21.4667 84.2 19.04 84.2 16.8C84.2 15.84 83.88 15.04 83.24 14.4C82.6533 13.7067 81.7467 13.36 80.52 13.36C79.24 13.36 77.6667 13.8667 75.8 14.88C73.9333 15.8933 71.9333 17.28 69.8 19.04C67.6667 20.7467 65.56 22.7467 63.48 25.04C61.4 27.28 59.5067 29.68 57.8 32.24C56.0933 34.8 54.7333 37.36 53.72 39.92C52.7067 42.48 52.2 44.96 52.2 47.36C52.2 50.24 52.8667 52.3733 54.2 53.76C55.5333 55.1467 57.1067 55.84 58.92 55.84C61.16 55.84 63.6667 55.2 66.44 53.92C69.2667 52.64 72.1467 50.88 75.08 48.64C78.0133 46.4 80.84 43.84 83.56 40.96C86.3333 38.0267 88.8133 34.9067 91 31.6C93.24 28.24 95 24.8267 96.28 21.36C97.56 17.8933 98.2 14.5333 98.2 11.28C98.2 8.66667 97.6933 6.61333 96.68 5.12C95.72 3.62666 94.44 2.56 92.84 1.92C91.2933 1.28 89.6133 0.959996 87.8 0.959996C84.76 0.959996 81.3467 1.73333 77.56 3.27999C73.7733 4.82666 69.8533 6.98666 65.8 9.76C61.8 12.48 57.9067 15.68 54.12 19.36C50.3867 22.9867 47 26.9333 43.96 31.2C40.9733 35.4133 38.5733 39.7867 36.76 44.32C35 48.8533 34.12 53.3867 34.12 57.92C34.12 61.28 34.6533 64.24 35.72 66.8C36.7867 69.36 38.4933 71.36 40.84 72.8C43.1867 74.24 46.2533 74.96 50.04 74.96C52.7067 74.96 55.6133 74.4533 58.76 73.44C61.9067 72.4267 65.1067 70.9867 68.36 69.12C71.6667 67.3067 74.8933 65.1467 78.04 62.64C81.24 60.08 84.1733 57.3067 86.84 54.32L87.48 53.6H88.12L87.48 54.32C84.7067 57.4133 81.72 60.2667 78.52 62.88C75.32 65.44 72.04 67.6533 68.68 69.52C65.3733 71.44 62.12 72.9067 58.92 73.92C55.72 74.9867 52.76 75.52 50.04 75.52ZM88.4131 64.56C87.7731 64.56 87.2931 64.2667 86.9731 63.68C86.5998 63.0933 86.4131 62.2933 86.4131 61.28C86.4131 59.8933 86.8398 58.4267 87.6931 56.88C88.4931 55.3333 89.5865 53.84 90.9731 52.4C92.3598 50.9067 93.9065 49.5733 95.6131 48.4C97.3198 47.1733 99.0798 46.2133 100.893 45.52C102.76 44.8267 104.52 44.48 106.173 44.48C107.56 44.48 108.253 45.0133 108.253 46.08C108.253 47.0933 107.613 48.3733 106.333 49.92C105.053 51.4133 103.453 53.1733 101.533 55.2C99.9865 56.8 98.3598 58.32 96.6531 59.76C94.9998 61.1467 93.4531 62.2933 92.0131 63.2C90.5731 64.1067 89.3731 64.56 88.4131 64.56ZM88.4931 64.16C89.2931 64.16 90.3331 63.76 91.6131 62.96C92.9465 62.16 94.4398 61.0667 96.0931 59.68C97.7465 58.2933 99.4531 56.6933 101.213 54.88C103.133 52.8533 104.68 51.12 105.853 49.68C107.08 48.24 107.693 47.0667 107.693 46.16C107.693 45.4667 107.24 45.12 106.333 45.12C105.533 45.12 104.493 45.44 103.213 46.08C101.986 46.72 100.653 47.6 99.2131 48.72C97.7731 49.7867 96.3598 50.9867 94.9731 52.32C93.5865 53.6533 92.3065 54.9867 91.1331 56.32C90.0131 57.6533 89.1065 58.9067 88.4131 60.08C87.7198 61.2533 87.3731 62.24 87.3731 63.04C87.3731 63.7867 87.7465 64.16 88.4931 64.16ZM108.493 54.24C107.16 55.7333 105.88 56.9067 104.653 57.76C103.426 58.6133 102.36 59.04 101.453 59.04C100.013 59.04 99.2931 58.2933 99.2931 56.8C99.2931 55.9467 99.5065 55.12 99.9331 54.32C100.36 53.4667 101.106 52.4267 102.173 51.2H105.133L101.373 55.36C100.733 56 100.413 56.72 100.413 57.52C100.413 58.2667 100.786 58.64 101.533 58.64C102.28 58.64 103.186 58.2667 104.253 57.52C105.373 56.7733 106.52 55.7333 107.693 54.4L108.413 53.6H109.053L108.493 54.24ZM111.487 53.6H110.847L111.567 52.8C113.914 50.24 116.127 48.2133 118.207 46.72C120.287 45.1733 121.94 44.4 123.167 44.4C123.647 44.4 124.047 44.56 124.367 44.88C124.687 45.2 124.847 45.6267 124.847 46.16C124.847 47.3333 124.367 48.64 123.407 50.08C122.447 51.52 120.794 53.44 118.447 55.84H119.247L117.647 58L112.287 64H107.007C108.927 62.6133 110.9 61.0133 112.927 59.2C114.954 57.3867 116.82 55.5733 118.527 53.76C120.234 51.9467 121.594 50.3467 122.607 48.96C123.674 47.52 124.207 46.48 124.207 45.84C124.207 45.1467 123.834 44.8 123.087 44.8C122.447 44.8 121.514 45.1733 120.287 45.92C119.06 46.6133 117.727 47.5733 116.287 48.8C114.9 49.9733 113.54 51.3067 112.207 52.8L111.487 53.6ZM135.007 64.56C134.42 64.56 133.887 64.2933 133.407 63.76C132.98 63.2267 132.767 62.6133 132.767 61.92C132.767 60.8 133.194 59.6267 134.047 58.4C134.9 57.1733 135.94 55.9733 137.167 54.8C138.447 53.5733 139.7 52.4267 140.927 51.36C142.207 50.24 143.274 49.2267 144.127 48.32C144.98 47.4133 145.407 46.64 145.407 46C145.407 45.36 145.034 45.04 144.287 45.04C143.54 45.04 142.527 45.44 141.247 46.24C139.967 46.9867 138.554 48 137.007 49.28C135.46 50.56 133.887 51.9733 132.287 53.52C130.74 55.0133 129.3 56.5067 127.967 58H127.327C128.714 56.4533 130.207 54.9067 131.807 53.36C133.407 51.8133 135.007 50.3733 136.607 49.04C138.207 47.7067 139.674 46.64 141.007 45.84C142.394 45.04 143.514 44.64 144.367 44.64C144.954 44.64 145.487 44.8533 145.967 45.28C146.5 45.6533 146.767 46.2667 146.767 47.12C146.767 48.24 146.314 49.3867 145.407 50.56C144.554 51.7333 143.487 52.9067 142.207 54.08C140.927 55.2533 139.647 56.3733 138.367 57.44C137.087 58.5067 135.994 59.52 135.087 60.48C134.234 61.44 133.807 62.2933 133.807 63.04C133.807 63.7867 134.234 64.16 135.087 64.16C135.887 64.16 137.034 63.7067 138.527 62.8C140.02 61.8933 141.647 60.6933 143.407 59.2C145.167 57.7067 146.82 56.1067 148.367 54.4L149.087 53.6H149.727L149.167 54.24C147.514 56.16 145.754 57.8933 143.887 59.44C142.074 60.9867 140.367 62.24 138.767 63.2C137.22 64.1067 135.967 64.56 135.007 64.56ZM117.647 58H117.007L121.887 52.8C124.18 50.2933 126.287 48.32 128.207 46.88C130.127 45.44 131.7 44.72 132.927 44.72C133.407 44.72 133.807 44.88 134.127 45.2C134.447 45.52 134.607 45.9467 134.607 46.48C134.607 47.6 134.18 48.8533 133.327 50.24C132.474 51.6267 130.954 53.4933 128.767 55.84H129.567L127.967 58L122.607 64H117.887C119.7 62.6133 121.54 61.04 123.407 59.28C125.327 57.4667 127.06 55.68 128.607 53.92C130.207 52.16 131.487 50.5867 132.447 49.2C133.46 47.8133 133.967 46.8 133.967 46.16C133.967 45.4667 133.594 45.12 132.847 45.12C132.207 45.12 131.327 45.4667 130.207 46.16C129.087 46.8533 127.86 47.7867 126.527 48.96C125.194 50.08 123.86 51.36 122.527 52.8L117.647 58ZM152.09 53.6H151.45L152.17 52.8C154.517 50.24 156.73 48.2133 158.81 46.72C160.89 45.1733 162.543 44.4 163.77 44.4C164.25 44.4 164.65 44.56 164.97 44.88C165.29 45.2 165.45 45.6267 165.45 46.16C165.45 47.3333 164.97 48.64 164.01 50.08C163.05 51.52 161.397 53.44 159.05 55.84H159.85L158.25 58L152.89 64H147.61C149.53 62.6133 151.503 61.0133 153.53 59.2C155.557 57.3867 157.423 55.5733 159.13 53.76C160.837 51.9467 162.197 50.3467 163.21 48.96C164.277 47.52 164.81 46.48 164.81 45.84C164.81 45.1467 164.437 44.8 163.69 44.8C163.05 44.8 162.117 45.1733 160.89 45.92C159.663 46.6133 158.33 47.5733 156.89 48.8C155.503 49.9733 154.143 51.3067 152.81 52.8L152.09 53.6ZM175.61 64.56C175.023 64.56 174.49 64.2933 174.01 63.76C173.583 63.2267 173.37 62.6133 173.37 61.92C173.37 60.8 173.797 59.6267 174.65 58.4C175.503 57.1733 176.543 55.9733 177.77 54.8C179.05 53.5733 180.303 52.4267 181.53 51.36C182.81 50.24 183.877 49.2267 184.73 48.32C185.583 47.4133 186.01 46.64 186.01 46C186.01 45.36 185.637 45.04 184.89 45.04C184.143 45.04 183.13 45.44 181.85 46.24C180.57 46.9867 179.157 48 177.61 49.28C176.063 50.56 174.49 51.9733 172.89 53.52C171.343 55.0133 169.903 56.5067 168.57 58H167.93C169.317 56.4533 170.81 54.9067 172.41 53.36C174.01 51.8133 175.61 50.3733 177.21 49.04C178.81 47.7067 180.277 46.64 181.61 45.84C182.997 45.04 184.117 44.64 184.97 44.64C185.557 44.64 186.09 44.8533 186.57 45.28C187.103 45.6533 187.37 46.2667 187.37 47.12C187.37 48.24 186.917 49.3867 186.01 50.56C185.157 51.7333 184.09 52.9067 182.81 54.08C181.53 55.2533 180.25 56.3733 178.97 57.44C177.69 58.5067 176.597 59.52 175.69 60.48C174.837 61.44 174.41 62.2933 174.41 63.04C174.41 63.7867 174.837 64.16 175.69 64.16C176.49 64.16 177.637 63.7067 179.13 62.8C180.623 61.8933 182.25 60.6933 184.01 59.2C185.77 57.7067 187.423 56.1067 188.97 54.4L189.69 53.6H190.33L189.77 54.24C188.117 56.16 186.357 57.8933 184.49 59.44C182.677 60.9867 180.97 62.24 179.37 63.2C177.823 64.1067 176.57 64.56 175.61 64.56ZM158.25 58H157.61L162.49 52.8C164.783 50.2933 166.89 48.32 168.81 46.88C170.73 45.44 172.303 44.72 173.53 44.72C174.01 44.72 174.41 44.88 174.73 45.2C175.05 45.52 175.21 45.9467 175.21 46.48C175.21 47.6 174.783 48.8533 173.93 50.24C173.077 51.6267 171.557 53.4933 169.37 55.84H170.17L168.57 58L163.21 64H158.49C160.303 62.6133 162.143 61.04 164.01 59.28C165.93 57.4667 167.663 55.68 169.21 53.92C170.81 52.16 172.09 50.5867 173.05 49.2C174.063 47.8133 174.57 46.8 174.57 46.16C174.57 45.4667 174.197 45.12 173.45 45.12C172.81 45.12 171.93 45.4667 170.81 46.16C169.69 46.8533 168.463 47.7867 167.13 48.96C165.797 50.08 164.463 51.36 163.13 52.8L158.25 58ZM199.413 45.36H204.213C203.306 45.84 202.16 46.6667 200.773 47.84C199.386 49.0133 197.92 50.3467 196.373 51.84C194.88 53.3333 193.466 54.8533 192.133 56.4C190.8 57.8933 189.733 59.2533 188.933 60.48C188.08 61.6533 187.653 62.5067 187.653 63.04C187.653 63.7867 187.973 64.16 188.613 64.16C189.36 64.16 190.506 63.6533 192.053 62.64C193.6 61.6267 195.333 60.2667 197.253 58.56C199.173 56.8 201.093 54.8267 203.013 52.64H203.653C200.08 56.3733 196.96 59.3067 194.293 61.44C191.68 63.52 189.76 64.56 188.533 64.56C188.053 64.56 187.68 64.4 187.413 64.08C187.146 63.76 187.013 63.3333 187.013 62.8C187.013 61.7333 187.386 60.5067 188.133 59.12C188.88 57.68 190.16 55.8667 191.973 53.68C193.786 51.4933 196.266 48.72 199.413 45.36ZM198.933 64.56C197.76 64.56 197.173 63.9467 197.173 62.72C197.173 61.1733 198.133 59.04 200.053 56.32C202.026 53.5467 205.2 49.8933 209.573 45.36H214.373C213.84 45.6267 213.173 46.0533 212.373 46.64C211.626 47.2267 210.8 47.9733 209.893 48.88C207.013 51.76 204.693 54.1333 202.933 56C201.226 57.8133 199.973 59.2533 199.173 60.32C198.426 61.3867 198.053 62.2667 198.053 62.96C198.053 63.76 198.373 64.16 199.013 64.16C199.76 64.16 200.8 63.7067 202.133 62.8C203.52 61.8933 205.04 60.72 206.693 59.28C208.346 57.7867 209.973 56.16 211.573 54.4L212.293 53.6H212.933L212.373 54.24C210.613 56.2133 208.853 58 207.093 59.6C205.333 61.1467 203.733 62.3733 202.293 63.28C200.906 64.1333 199.786 64.56 198.933 64.56ZM215.328 53.6H214.688L215.408 52.8C217.754 50.24 219.968 48.2133 222.048 46.72C224.128 45.1733 225.781 44.4 227.008 44.4C227.488 44.4 227.888 44.56 228.208 44.88C228.528 45.2 228.688 45.6267 228.688 46.16C228.688 47.3333 228.208 48.64 227.248 50.08C226.288 51.52 224.634 53.44 222.288 55.84H223.088L221.488 58L216.128 64H210.847C212.767 62.6133 214.741 61.0133 216.768 59.2C218.794 57.3867 220.661 55.5733 222.368 53.76C224.074 51.9467 225.434 50.3467 226.447 48.96C227.514 47.52 228.048 46.48 228.048 45.84C228.048 45.1467 227.674 44.8 226.928 44.8C226.288 44.8 225.354 45.1733 224.128 45.92C222.901 46.6133 221.568 47.5733 220.128 48.8C218.741 49.9733 217.381 51.3067 216.048 52.8L215.328 53.6ZM228.528 64.56C227.941 64.56 227.408 64.2933 226.928 63.76C226.501 63.2267 226.288 62.6133 226.288 61.92C226.288 60.8 226.714 59.6267 227.568 58.4C228.421 57.1733 229.461 55.9733 230.688 54.8C231.968 53.5733 233.221 52.4267 234.448 51.36C235.728 50.24 236.794 49.2267 237.648 48.32C238.501 47.4133 238.928 46.64 238.928 46C238.928 45.36 238.554 45.04 237.808 45.04C237.061 45.04 236.048 45.44 234.768 46.24C233.488 46.9867 232.074 48 230.528 49.28C228.981 50.56 227.408 51.9733 225.808 53.52C224.261 55.0133 222.821 56.5067 221.488 58H220.848C222.234 56.4533 223.728 54.9067 225.328 53.36C226.928 51.8133 228.528 50.3733 230.128 49.04C231.728 47.7067 233.194 46.64 234.528 45.84C235.914 45.04 237.034 44.64 237.888 44.64C238.474 44.64 239.008 44.8533 239.488 45.28C240.021 45.6533 240.288 46.2667 240.288 47.12C240.288 48.24 239.834 49.3867 238.928 50.56C238.074 51.7333 237.008 52.9067 235.728 54.08C234.448 55.2533 233.168 56.3733 231.888 57.44C230.608 58.5067 229.514 59.52 228.608 60.48C227.754 61.44 227.328 62.2933 227.328 63.04C227.328 63.36 227.434 63.6267 227.648 63.84C227.914 64.0533 228.234 64.16 228.608 64.16C229.408 64.16 230.554 63.7067 232.048 62.8C233.541 61.8933 235.168 60.6933 236.928 59.2C238.688 57.7067 240.341 56.1067 241.888 54.4L242.608 53.6H243.248L242.688 54.24C240.981 56.16 239.194 57.8933 237.328 59.44C235.514 60.9867 233.834 62.24 232.288 63.2C230.741 64.1067 229.488 64.56 228.528 64.56ZM241.698 64.56C241.218 64.56 240.818 64.3733 240.498 64C240.125 63.68 239.938 63.2533 239.938 62.72C239.938 61.1733 240.925 59.04 242.898 56.32C244.818 53.5467 247.965 49.8933 252.338 45.36H257.138C256.605 45.6267 255.965 46.0533 255.218 46.64C254.471 47.2267 253.618 47.9733 252.658 48.88C249.725 51.7067 247.378 54.0533 245.618 55.92C243.911 57.7333 242.685 59.2 241.938 60.32C241.191 61.3867 240.818 62.2667 240.818 62.96C240.818 63.76 241.138 64.16 241.778 64.16C242.525 64.16 243.591 63.7333 244.978 62.88C246.311 61.9733 247.805 60.7733 249.458 59.28C251.165 57.7867 252.791 56.16 254.338 54.4L255.058 53.6H255.698L255.138 54.24C253.378 56.2133 251.618 58 249.858 59.6C248.098 61.1467 246.498 62.3733 245.058 63.28C243.671 64.1333 242.551 64.56 241.698 64.56ZM268.578 28.8C269.058 28.8 269.298 28.9867 269.298 29.36C269.298 29.8933 268.925 30.56 268.178 31.36C267.485 32.16 266.658 32.88 265.698 33.52C264.738 34.1067 263.911 34.4 263.218 34.4C262.791 34.4 262.578 34.2133 262.578 33.84C262.578 33.3067 262.925 32.64 263.618 31.84C264.365 31.04 265.218 30.3467 266.178 29.76C267.138 29.12 267.938 28.8 268.578 28.8ZM258.176 64.56C257.163 64.56 256.336 64.16 255.696 63.36C255.056 62.5067 254.736 61.44 254.736 60.16C254.736 58.8267 255.136 57.4667 255.936 56.08C256.683 54.64 257.696 53.2533 258.976 51.92C260.256 50.5333 261.696 49.3067 263.296 48.24C264.896 47.12 266.55 46.24 268.256 45.6C269.963 44.96 271.59 44.64 273.136 44.64C275.163 44.64 276.176 45.2533 276.176 46.48C276.176 47.1733 275.803 48.0267 275.056 49.04C274.363 50.0533 273.536 50.9067 272.576 51.6H269.776C270.576 51.2267 271.403 50.6933 272.256 50C273.11 49.3067 273.83 48.6133 274.416 47.92C275.003 47.1733 275.296 46.5867 275.296 46.16C275.296 45.4667 274.736 45.12 273.616 45.12C272.55 45.12 271.27 45.5467 269.776 46.4C268.283 47.2533 266.736 48.3733 265.136 49.76C263.59 51.0933 262.123 52.56 260.736 54.16C259.403 55.7067 258.31 57.2267 257.456 58.72C256.603 60.16 256.176 61.4133 256.176 62.48C256.176 63.6 256.896 64.16 258.336 64.16C259.83 64.16 261.536 63.7333 263.456 62.88C265.43 62.0267 267.403 60.8533 269.376 59.36C271.35 57.8667 273.163 56.2133 274.816 54.4L275.536 53.6H276.176L275.616 54.24C273.856 56.2667 271.936 58.0533 269.856 59.6C267.776 61.1467 265.723 62.3733 263.696 63.28C261.723 64.1333 259.883 64.56 258.176 64.56ZM276.463 64.4C275.13 64.4 274.463 63.36 274.463 61.28C274.463 59.8933 274.89 58.4267 275.743 56.88C276.543 55.3333 277.636 53.84 279.023 52.4C280.41 50.9067 281.956 49.5733 283.663 48.4C285.37 47.1733 287.13 46.2133 288.943 45.52C290.81 44.8267 292.57 44.48 294.223 44.48C295.61 44.48 296.303 45.0133 296.303 46.08C296.303 47.0933 295.663 48.3733 294.383 49.92C293.103 51.4133 291.503 53.1733 289.583 55.2C288.09 56.7467 286.49 58.24 284.783 59.68C283.13 61.0667 281.556 62.2133 280.063 63.12C278.623 63.9733 277.423 64.4 276.463 64.4ZM276.543 64C277.343 64 278.41 63.6267 279.743 62.88C281.076 62.08 282.57 60.9867 284.223 59.6C285.876 58.2133 287.556 56.64 289.263 54.88C291.183 52.8533 292.73 51.12 293.903 49.68C295.13 48.24 295.743 47.0667 295.743 46.16C295.743 45.4667 295.29 45.12 294.383 45.12C293.583 45.12 292.543 45.44 291.263 46.08C290.036 46.72 288.703 47.6 287.263 48.72C285.823 49.7867 284.41 50.9867 283.023 52.32C281.636 53.6533 280.356 54.9867 279.183 56.32C278.063 57.6533 277.156 58.9067 276.463 60.08C275.77 61.2533 275.423 62.24 275.423 63.04C275.423 63.68 275.796 64 276.543 64ZM301.583 53.6L301.023 54.24C299.316 56.16 297.583 57.92 295.823 59.52C294.116 61.0667 292.516 62.2933 291.023 63.2C289.583 64.1067 288.436 64.56 287.583 64.56C287.103 64.56 286.676 64.3733 286.303 64C285.983 63.68 285.823 63.2533 285.823 62.72C285.823 61.3333 286.57 59.4667 288.063 57.12C289.61 54.7733 291.743 52.2133 294.463 49.44H294.783L298.463 45.36H303.183C302.49 45.7867 301.743 46.32 300.943 46.96C300.143 47.5467 299.396 48.1867 298.703 48.88C295.663 51.92 293.263 54.3467 291.503 56.16C289.743 57.9733 288.49 59.3867 287.743 60.4C287.05 61.4133 286.703 62.2667 286.703 62.96C286.703 63.76 287.023 64.16 287.663 64.16C288.41 64.16 289.423 63.76 290.703 62.96C292.036 62.1067 293.53 60.9333 295.183 59.44C296.836 57.9467 298.516 56.2667 300.223 54.4L300.943 53.6H301.583ZM306.55 39.84V39.28H338.23V39.84H306.55ZM306.87 52.64C304.47 55.3067 302.79 57.4133 301.83 58.96C300.817 60.4533 300.31 61.7333 300.31 62.8C300.31 63.7067 300.683 64.16 301.43 64.16C302.23 64.16 303.11 63.8667 304.07 63.28C305.083 62.64 306.31 61.6267 307.75 60.24C309.243 58.8 311.083 56.8533 313.27 54.4L313.99 53.6H314.63L314.07 54.24C310.763 57.9733 308.123 60.64 306.15 62.24C304.23 63.7867 302.603 64.56 301.27 64.56C299.83 64.56 299.11 63.76 299.11 62.16C299.11 59.6533 300.523 56.8 303.35 53.6C304.15 52.5867 304.923 51.6533 305.67 50.8C306.417 49.9467 307.243 49.0133 308.15 48C309.11 46.9333 310.283 45.6533 311.67 44.16C313.11 42.6133 314.897 40.72 317.03 38.48C319.163 36.24 321.777 33.4667 324.87 30.16C325.563 30.16 326.363 30.1067 327.27 30C328.23 29.84 329.137 29.6533 329.99 29.44C328.657 30.4 326.79 32.0267 324.39 34.32C321.99 36.6133 319.27 39.36 316.23 42.56C313.19 45.7067 310.07 49.0667 306.87 52.64ZM313.095 64.56C312.615 64.56 312.215 64.3733 311.895 64C311.522 63.68 311.335 63.2533 311.335 62.72C311.335 61.1733 312.322 59.04 314.295 56.32C316.215 53.5467 319.362 49.8933 323.735 45.36H328.535C328.002 45.6267 327.362 46.0533 326.615 46.64C325.868 47.2267 325.015 47.9733 324.055 48.88C321.122 51.7067 318.775 54.0533 317.015 55.92C315.308 57.7333 314.082 59.2 313.335 60.32C312.588 61.3867 312.215 62.2667 312.215 62.96C312.215 63.76 312.535 64.16 313.175 64.16C313.922 64.16 314.988 63.7333 316.375 62.88C317.708 61.9733 319.202 60.7733 320.855 59.28C322.562 57.7867 324.188 56.16 325.735 54.4L326.455 53.6H327.095L326.535 54.24C324.775 56.2133 323.015 58 321.255 59.6C319.495 61.1467 317.895 62.3733 316.455 63.28C315.068 64.1333 313.948 64.56 313.095 64.56ZM339.975 28.8C340.455 28.8 340.695 28.9867 340.695 29.36C340.695 29.8933 340.322 30.56 339.575 31.36C338.882 32.16 338.055 32.88 337.095 33.52C336.135 34.1067 335.308 34.4 334.615 34.4C334.188 34.4 333.975 34.2133 333.975 33.84C333.975 33.3067 334.322 32.64 335.015 31.84C335.762 31.04 336.615 30.3467 337.575 29.76C338.535 29.12 339.335 28.8 339.975 28.8ZM327.413 64.56C326.773 64.56 326.293 64.2667 325.973 63.68C325.6 63.0933 325.413 62.2933 325.413 61.28C325.413 59.8933 325.84 58.4267 326.693 56.88C327.493 55.3333 328.586 53.84 329.973 52.4C331.36 50.9067 332.906 49.5733 334.613 48.4C336.32 47.1733 338.08 46.2133 339.893 45.52C341.76 44.8267 343.52 44.48 345.173 44.48C346.56 44.48 347.253 45.0133 347.253 46.08C347.253 47.0933 346.613 48.3733 345.333 49.92C344.053 51.4133 342.453 53.1733 340.533 55.2C338.986 56.8 337.36 58.32 335.653 59.76C334 61.1467 332.453 62.2933 331.013 63.2C329.573 64.1067 328.373 64.56 327.413 64.56ZM327.493 64.16C328.293 64.16 329.333 63.76 330.613 62.96C331.946 62.16 333.44 61.0667 335.093 59.68C336.746 58.2933 338.453 56.6933 340.213 54.88C342.133 52.8533 343.68 51.12 344.853 49.68C346.08 48.24 346.693 47.0667 346.693 46.16C346.693 45.4667 346.24 45.12 345.333 45.12C344.533 45.12 343.493 45.44 342.213 46.08C340.986 46.72 339.653 47.6 338.213 48.72C336.773 49.7867 335.36 50.9867 333.973 52.32C332.586 53.6533 331.306 54.9867 330.133 56.32C329.013 57.6533 328.106 58.9067 327.413 60.08C326.72 61.2533 326.373 62.24 326.373 63.04C326.373 63.7867 326.746 64.16 327.493 64.16ZM347.493 54.24C346.16 55.7333 344.88 56.9067 343.653 57.76C342.426 58.6133 341.36 59.04 340.453 59.04C339.013 59.04 338.293 58.2933 338.293 56.8C338.293 55.9467 338.506 55.12 338.933 54.32C339.36 53.4667 340.106 52.4267 341.173 51.2H344.133L340.373 55.36C339.733 56 339.413 56.72 339.413 57.52C339.413 58.2667 339.786 58.64 340.533 58.64C341.28 58.64 342.186 58.2667 343.253 57.52C344.373 56.7733 345.52 55.7333 346.693 54.4L347.413 53.6H348.053L347.493 54.24ZM350.487 53.6H349.847L350.567 52.8C352.914 50.24 355.127 48.2133 357.207 46.72C359.287 45.1733 360.94 44.4 362.167 44.4C362.647 44.4 363.047 44.56 363.367 44.88C363.687 45.2 363.847 45.6267 363.847 46.16C363.847 47.3333 363.367 48.64 362.407 50.08C361.447 51.52 359.794 53.44 357.447 55.84H358.247L356.647 58L351.287 64H346.007C347.927 62.6133 349.9 61.0133 351.927 59.2C353.954 57.3867 355.82 55.5733 357.527 53.76C359.234 51.9467 360.594 50.3467 361.607 48.96C362.674 47.52 363.207 46.48 363.207 45.84C363.207 45.1467 362.834 44.8 362.087 44.8C361.447 44.8 360.514 45.1733 359.287 45.92C358.06 46.6133 356.727 47.5733 355.287 48.8C353.9 49.9733 352.54 51.3067 351.207 52.8L350.487 53.6ZM363.687 64.56C363.1 64.56 362.567 64.2933 362.087 63.76C361.66 63.2267 361.447 62.6133 361.447 61.92C361.447 60.8 361.874 59.6267 362.727 58.4C363.58 57.1733 364.62 55.9733 365.847 54.8C367.127 53.5733 368.38 52.4267 369.607 51.36C370.887 50.24 371.954 49.2267 372.807 48.32C373.66 47.4133 374.087 46.64 374.087 46C374.087 45.36 373.714 45.04 372.967 45.04C372.22 45.04 371.207 45.44 369.927 46.24C368.647 46.9867 367.234 48 365.687 49.28C364.14 50.56 362.567 51.9733 360.967 53.52C359.42 55.0133 357.98 56.5067 356.647 58H356.007C357.394 56.4533 358.887 54.9067 360.487 53.36C362.087 51.8133 363.687 50.3733 365.287 49.04C366.887 47.7067 368.354 46.64 369.687 45.84C371.074 45.04 372.194 44.64 373.047 44.64C373.634 44.64 374.167 44.8533 374.647 45.28C375.18 45.6533 375.447 46.2667 375.447 47.12C375.447 48.24 374.994 49.3867 374.087 50.56C373.234 51.7333 372.167 52.9067 370.887 54.08C369.607 55.2533 368.327 56.3733 367.047 57.44C365.767 58.5067 364.674 59.52 363.767 60.48C362.914 61.44 362.487 62.2933 362.487 63.04C362.487 63.36 362.594 63.6267 362.807 63.84C363.074 64.0533 363.394 64.16 363.767 64.16C364.567 64.16 365.714 63.7067 367.207 62.8C368.7 61.8933 370.327 60.6933 372.087 59.2C373.847 57.7067 375.5 56.1067 377.047 54.4L377.767 53.6H378.407L377.847 54.24C376.14 56.16 374.354 57.8933 372.487 59.44C370.674 60.9867 368.994 62.24 367.447 63.2C365.9 64.1067 364.647 64.56 363.687 64.56Z" fill="black"/>
</svg>