<svg width="307" height="76" viewBox="0 0 307 76" fill="none" xmlns="http://www.w3.org/2000/svg">
<path d="M36.6 38.12C36.8133 37.5333 37.24 37.0533 37.88 36.68C38.52 36.2533 39.1867 36.04 39.88 36.04C40.0933 36.04 40.4133 36.0933 40.84 36.2C42.3867 36.6267 43.16 37.5333 43.16 38.92C43.16 40.1467 42.6267 41.4 41.56 42.68C41.6667 43.1067 41.72 43.48 41.72 43.8C41.72 44.4933 41.56 45.1867 41.24 45.88C40.9733 46.5733 40.5733 47.2133 40.04 47.8C39.88 48.6533 39.64 49.4 39.32 50.04C39.0533 50.6267 38.6267 51.32 38.04 52.12C37.4 52.9733 36.76 53.5867 36.12 53.96C35.5333 54.28 34.7067 54.6 33.64 54.92C33.3733 55.6667 32.9467 56.36 32.36 57C31.7733 57.5867 31.0533 57.88 30.2 57.88C29.7733 57.88 29.32 57.8 28.84 57.64C28.4667 58.0667 27.9333 58.4133 27.24 58.68C26.6 58.8933 25.9333 59 25.24 59C24.3333 59 23.6133 58.8133 23.08 58.44C22.44 58.7067 21.6133 58.84 20.6 58.84C19.2667 58.84 17.9867 58.6267 16.76 58.2C15.5333 57.7733 14.5733 57.1067 13.88 56.2C12.6 56.3067 11.5333 56.0133 10.68 55.32C9.93333 54.8933 9.45333 54.4133 9.24 53.88C7.26667 52.92 6.30667 51.16 6.36 48.6C5.4 47.96 4.68 47.24 4.2 46.44C3.72 45.5867 3.34667 44.52 3.08 43.24C2.65333 42.8133 2.44 42.2533 2.44 41.56C2.44 41.24 2.46667 40.9733 2.52 40.76C2.04 40.28 1.8 39.64 1.8 38.84C1.8 38.4667 1.88 38.0933 2.04 37.72C1.29333 36.92 0.92 35.7733 0.92 34.28C0.92 32.9467 1.21333 31.9067 1.8 31.16C1.42667 30.6267 1.24 30.04 1.24 29.4C1.24 28.92 1.37333 28.4133 1.64 27.88C1.37333 27.56 1.24 26.92 1.24 25.96C1.24 24.8933 1.4 23.8267 1.72 22.76C2.04 21.64 2.44 20.8933 2.92 20.52C2.76 20.2 2.68 19.7467 2.68 19.16C2.68 18.3067 2.81333 17.5067 3.08 16.76C3.4 16.0133 3.82667 15.6133 4.36 15.56C4.36 14.44 4.81333 13.56 5.72 12.92C5.66667 12.1733 5.93333 11.3467 6.52 10.44C7.16 9.53333 7.88 8.92 8.68 8.6C8.84 7.42666 9.32 6.44 10.12 5.64C10.92 4.84 11.8 4.38666 12.76 4.28C13.0267 3.8 13.5067 3.4 14.2 3.08C14.9467 2.70666 15.6667 2.52 16.36 2.52C16.8933 2.52 17.3467 2.62666 17.72 2.84C18.52 2.09333 19.4267 1.72 20.44 1.72C21.2933 1.72 21.8533 1.93333 22.12 2.36C22.5467 2.25333 22.92 2.2 23.24 2.2C24.2 2.2 24.92 2.54666 25.4 3.24C25.6133 3.08 25.9333 3 26.36 3C27.1067 3 27.9333 3.21333 28.84 3.64C29.8 4.01333 30.36 4.38666 30.52 4.76C31.64 4.97333 32.6533 5.53333 33.56 6.44C34.4667 7.29333 34.84 8.17333 34.68 9.08C35.4267 9.45333 35.96 9.98666 36.28 10.68C36.6 11.32 36.7067 11.9333 36.6 12.52C37.08 12.8933 37.4 13.3733 37.56 13.96C37.72 14.4933 37.8267 14.8133 37.88 14.92C38.9467 15.8267 39.48 16.9733 39.48 18.36C39.48 18.6267 39.4267 18.9733 39.32 19.4C39.3733 19.6133 39.4 19.88 39.4 20.2C39.4 21.1067 39.0533 21.88 38.36 22.52C37.72 23.1067 36.9733 23.4 36.12 23.4C35.2667 23.4 34.52 23.08 33.88 22.44C32.3867 20.84 31.56 19.24 31.4 17.64C30.76 17.4267 30.2533 17.0267 29.88 16.44C29.5067 15.8 29.3467 15.1067 29.4 14.36C28.92 14.04 28.5467 13.64 28.28 13.16C28.0667 12.6267 27.9867 12.0933 28.04 11.56C27.08 11.56 26.3333 11.2667 25.8 10.68C25.64 10.7333 25.3467 10.76 24.92 10.76C24.3333 10.76 23.6933 10.68 23 10.52C22.3067 10.3067 21.7733 10.0667 21.4 9.8C21.1867 9.85333 20.8667 9.88 20.44 9.88C19.8533 9.88 19.4533 9.82666 19.24 9.72C18.5467 10.1467 17.88 10.36 17.24 10.36C17.0267 10.36 16.6533 10.3067 16.12 10.2C15.5333 10.68 14.9733 10.9467 14.44 11C14.3333 11.8533 14.0933 12.6267 13.72 13.32C13.4 14.0133 12.9733 14.4133 12.44 14.52C12.5467 15.16 12.44 15.8 12.12 16.44C11.8 17.0267 11.3467 17.5067 10.76 17.88C10.7067 18.3067 10.5733 18.7333 10.36 19.16C10.1467 19.5333 9.88 19.8267 9.56 20.04C9.61333 20.3067 9.66667 20.6267 9.72 21C9.77333 21.32 9.8 21.72 9.8 22.2C9.8 23.32 9.32 24.2 8.36 24.84C8.36 25.5333 8.22667 26.0933 7.96 26.52C8.22667 27.0533 8.36 27.5867 8.36 28.12C8.36 28.6533 8.25333 29.1333 8.04 29.56C8.36 30.0933 8.52 30.6 8.52 31.08C8.52 31.56 8.38667 32.12 8.12 32.76C7.85333 33.4533 7.69333 34.0933 7.64 34.68C8.12 34.9467 8.49333 35.32 8.76 35.8C9.02667 36.28 9.16 36.7867 9.16 37.32C9.16 37.9067 9 38.44 8.68 38.92C9.10667 39.1333 9.42667 39.5067 9.64 40.04C9.85333 40.5733 9.96 41.1333 9.96 41.72C9.96 42.3067 9.85333 42.7867 9.64 43.16C10.8133 43.8 11.6133 44.4667 12.04 45.16C12.52 45.8 12.8667 46.84 13.08 48.28C13.4533 48.44 13.88 48.7067 14.36 49.08C14.8933 49.4533 15.24 49.7733 15.4 50.04C16.3067 49.9867 17.24 50.2 18.2 50.68C19.2133 51.1067 19.9067 51.6933 20.28 52.44C20.6 52.1733 21.1067 51.96 21.8 51.8C22.5467 51.5867 23.2667 51.48 23.96 51.48C24.7067 51.48 25.2133 51.5867 25.48 51.8C26.2267 50.8933 27.1333 50.44 28.2 50.44C28.52 50.44 28.76 50.4667 28.92 50.52C29.7733 49.8267 30.44 49.3467 30.92 49.08C31.4 48.76 31.96 48.52 32.6 48.36C32.6533 47.56 32.9733 46.7867 33.56 46.04C33.6133 45.6133 33.7733 45.1067 34.04 44.52C34.3067 43.88 34.5733 43.4 34.84 43.08C34.7867 42.92 34.76 42.6533 34.76 42.28C34.76 41.5867 34.9467 40.84 35.32 40.04C35.6933 39.1867 36.12 38.5467 36.6 38.12ZM67.335 57.64C66.7483 57.8533 66.1883 57.96 65.655 57.96C64.9083 57.96 64.295 57.6933 63.815 57.16C63.2283 57.2133 62.5617 56.9733 61.815 56.44C61.1217 55.8533 60.695 55.2933 60.535 54.76C59.895 54.6 59.3083 54.2533 58.775 53.72C58.295 53.1333 57.975 52.4133 57.815 51.56C57.175 51.4 56.6417 50.9733 56.215 50.28C55.8417 49.5333 55.655 48.68 55.655 47.72C55.655 47.1333 55.735 46.5733 55.895 46.04C55.5217 45.4533 55.3883 44.7067 55.495 43.8C54.7483 43.16 54.375 42.4133 54.375 41.56C54.375 41.1333 54.455 40.7333 54.615 40.36C54.295 39.88 54.135 39.32 54.135 38.68C54.135 37.88 54.375 37.16 54.855 36.52C54.1083 35.88 53.735 35.08 53.735 34.12C53.735 33.5333 53.895 33.0267 54.215 32.6C53.735 31.9067 53.495 31.08 53.495 30.12C53.495 29.3733 53.655 28.8133 53.975 28.44C53.4417 28.0133 53.175 27.3733 53.175 26.52C53.175 25.9867 53.335 25.4 53.655 24.76C53.3883 24.3333 53.255 23.72 53.255 22.92C53.255 21.7467 53.575 20.84 54.215 20.2C54.055 19.72 53.975 19.2667 53.975 18.84C53.975 17.88 54.295 17.1333 54.935 16.6C55.6283 16.0133 56.4283 15.72 57.335 15.72C58.2417 15.72 59.015 16.0133 59.655 16.6C60.3483 17.1867 60.695 18.04 60.695 19.16C60.695 20.0133 60.5083 20.92 60.135 21.88C60.8817 22.52 61.255 23.3467 61.255 24.36C61.255 25.1067 61.015 25.7733 60.535 26.36C60.855 26.9467 61.015 27.72 61.015 28.68C61.015 29.6933 60.855 30.52 60.535 31.16C61.015 31.8 61.255 32.7867 61.255 34.12C61.255 35.0267 61.2017 35.64 61.095 35.96C61.5217 36.44 61.735 37.0533 61.735 37.8C61.735 38.2267 61.6283 38.7067 61.415 39.24C61.9483 39.8267 62.215 40.6267 62.215 41.64C62.215 41.96 62.1617 42.28 62.055 42.6C62.2683 42.76 62.455 43.0533 62.615 43.48C62.775 43.8533 62.855 44.2533 62.855 44.68C62.855 45.2133 62.7217 45.6667 62.455 46.04C62.8817 46.0933 63.175 46.3867 63.335 46.92C63.495 47.4 63.5217 47.88 63.415 48.36H63.495C63.8683 48.36 64.1883 48.5733 64.455 49C64.775 49.3733 64.8817 49.72 64.775 50.04C64.935 49.9333 65.175 49.88 65.495 49.88C65.9217 49.88 66.295 49.9867 66.615 50.2C66.9883 50.36 67.255 50.5733 67.415 50.84C68.4817 50.2533 69.495 49.96 70.455 49.96C70.935 49.96 71.3617 50.04 71.735 50.2C72.215 49.8267 72.8283 49.5067 73.575 49.24C74.375 48.92 75.0683 48.76 75.655 48.76C75.9217 48.76 76.1617 48.8133 76.375 48.92C76.0017 48.3333 75.815 47.5867 75.815 46.68C75.815 45.6667 76.135 45.0267 76.775 44.76C76.4017 44.3333 76.215 43.4267 76.215 42.04C76.215 40.3867 76.5617 39.2133 77.255 38.52C76.775 37.72 76.535 36.84 76.535 35.88C76.535 35.0267 76.695 34.44 77.015 34.12C76.695 33.6933 76.535 33.16 76.535 32.52C76.535 31.88 76.6417 31.2133 76.855 30.52C77.1217 29.7733 77.4417 29.1867 77.815 28.76C77.1217 28.28 76.775 27.24 76.775 25.64C76.775 24.6267 76.855 23.8 77.015 23.16C76.535 22.0933 76.295 21.1867 76.295 20.44C76.295 19.48 76.615 18.7067 77.255 18.12C77.895 17.5333 78.6417 17.24 79.495 17.24C80.5083 17.24 81.3617 17.64 82.055 18.44C82.8017 19.24 83.1483 20.3867 83.095 21.88C83.3617 22.1467 83.575 22.5733 83.735 23.16C83.9483 23.6933 84.055 24.2533 84.055 24.84C84.055 26.0133 83.7617 26.84 83.175 27.32C84.135 28.4933 84.615 29.64 84.615 30.76C84.615 31.5067 84.4017 32.12 83.975 32.6C84.4017 33.1867 84.615 33.8267 84.615 34.52C84.615 35.2133 84.4283 35.9333 84.055 36.68C84.375 37.16 84.535 37.6933 84.535 38.28C84.535 39.24 84.135 40.0667 83.335 40.76C83.8683 41.3467 84.135 42.04 84.135 42.84C84.135 43.6933 83.7883 44.6533 83.095 45.72C83.6283 46.04 83.895 46.7067 83.895 47.72C83.895 48.7333 83.6817 49.7733 83.255 50.84C83.6817 51.4267 83.895 52.2 83.895 53.16C83.895 53.7467 83.7883 54.2267 83.575 54.6C83.6817 55.1333 83.735 55.5333 83.735 55.8C83.735 56.8133 83.415 57.6133 82.775 58.2C82.1883 58.7333 81.4683 59 80.615 59C79.8683 59 79.2017 58.76 78.615 58.28C78.0283 57.7467 77.6817 57 77.575 56.04C77.5217 55.9867 77.4417 55.9067 77.335 55.8C77.2817 55.64 77.2283 55.5067 77.175 55.4C76.2683 55.9333 75.4417 56.2 74.695 56.2C74.4283 56.2 74.215 56.1733 74.055 56.12C73.3617 56.6 72.695 56.84 72.055 56.84C71.5217 56.84 71.015 56.7333 70.535 56.52C70.3217 56.8933 69.975 57.1867 69.495 57.4C69.0683 57.6133 68.5883 57.72 68.055 57.72C67.735 57.72 67.495 57.6933 67.335 57.64ZM102.209 55.24C102.423 56.4133 102.183 57.3467 101.489 58.04C100.849 58.68 100.049 59 99.0894 59C98.236 59 97.4894 58.7333 96.8494 58.2C96.2094 57.6133 95.8894 56.8133 95.8894 55.8C95.8894 55.16 96.0494 54.44 96.3694 53.64C96.0494 52.8933 95.8894 52.12 95.8894 51.32C95.8894 50.68 96.0227 50.1467 96.2894 49.72C95.9694 49.5067 95.7294 49.1867 95.5694 48.76C95.4094 48.3333 95.3294 47.8533 95.3294 47.32C95.3294 46.7867 95.436 46.2 95.6494 45.56C95.1694 44.9733 94.9294 44.28 94.9294 43.48C94.9294 42.4667 95.3027 41.64 96.0494 41C95.996 40.84 95.9694 40.5733 95.9694 40.2C95.9694 39.6667 96.0227 39.2933 96.1294 39.08C95.5427 38.3333 95.2494 37.2667 95.2494 35.88C95.2494 34.92 95.436 34.1733 95.8094 33.64C95.436 33.32 95.116 32.8933 94.8494 32.36C94.5827 31.7733 94.4494 31.1867 94.4494 30.6C94.4494 29.96 94.636 29.3467 95.0094 28.76C94.7427 28.12 94.6094 27.56 94.6094 27.08C94.6094 26.28 94.8494 25.5333 95.3294 24.84C94.6894 24.2 94.3694 23.5333 94.3694 22.84C94.3694 22.3067 94.556 21.5867 94.9294 20.68C94.556 19.9333 94.3694 19.1333 94.3694 18.28C94.3694 17.16 94.7694 16.4667 95.5694 16.2C95.6227 15.4533 95.8894 14.84 96.3694 14.36C96.8494 13.88 97.436 13.64 98.1294 13.64C98.9294 13.64 99.6227 14.04 100.209 14.84C100.849 15.5867 101.169 16.68 101.169 18.12C101.169 18.7067 101.143 19.1867 101.089 19.56C101.303 19.4533 101.516 19.2933 101.729 19.08C101.943 18.8133 102.209 18.6267 102.529 18.52C102.849 18.4133 103.329 18.36 103.969 18.36C104.076 18.0933 104.423 17.8267 105.009 17.56C105.649 17.2933 106.263 17.16 106.849 17.16C107.276 17.16 107.569 17.2133 107.729 17.32C108.156 17.1067 108.583 17 109.009 17C109.649 17 110.343 17.4533 111.089 18.36C112.369 18.2533 113.303 18.5467 113.889 19.24C114.743 19.1867 115.489 19.2933 116.129 19.56C116.769 19.8267 117.276 20.3867 117.649 21.24C118.663 21.88 119.169 22.7333 119.169 23.8C119.169 24.7067 118.769 25.56 117.969 26.36C117.223 27.1067 116.396 27.48 115.489 27.48C114.476 27.48 113.623 26.9467 112.929 25.88C112.343 25.88 111.889 25.8267 111.569 25.72C111.249 25.6133 110.929 25.3733 110.609 25C110.289 25.1067 110.023 25.16 109.809 25.16C109.329 25.16 108.823 25.0267 108.289 24.76C107.543 25.24 106.743 25.4533 105.889 25.4C105.569 26.1467 104.743 26.52 103.409 26.52C103.463 26.68 103.489 26.9467 103.489 27.32C103.489 28.0133 103.329 28.7067 103.009 29.4C102.743 30.04 102.396 30.52 101.969 30.84C102.396 31.8533 102.609 32.8667 102.609 33.88C102.609 34.7867 102.396 35.48 101.969 35.96C102.129 36.1733 102.289 36.44 102.449 36.76C102.663 37.08 102.823 37.3733 102.929 37.64C103.036 38.0667 103.089 38.3867 103.089 38.6C103.089 38.9733 102.956 39.48 102.689 40.12C102.956 40.76 103.089 41.24 103.089 41.56C103.089 41.9867 102.903 42.5733 102.529 43.32C102.849 43.8533 103.009 44.44 103.009 45.08C103.009 45.8267 102.823 46.4667 102.449 47C102.823 47.8533 103.009 48.7333 103.009 49.64C103.009 50.3333 102.849 50.9733 102.529 51.56C102.796 52.0933 102.929 52.6267 102.929 53.16C102.929 53.9067 102.689 54.6 102.209 55.24ZM127.363 1.96C126.67 2.28 126.11 2.73333 125.683 3.32C125.256 3.90666 125.043 4.52 125.043 5.16C125.043 6.01333 125.39 6.86667 126.083 7.72C125.976 8.41333 126.35 9.08 127.203 9.72C128.056 10.36 128.99 10.68 130.003 10.68C130.696 10.68 131.31 10.4933 131.843 10.12C133.336 9.32 134.083 8.30666 134.083 7.08C134.083 6.28 133.763 5.37333 133.123 4.36C133.176 3.29333 132.856 2.46666 132.163 1.88C131.523 1.24 130.75 0.919999 129.843 0.919999C128.83 0.919999 128.003 1.26666 127.363 1.96ZM132.563 37.32C132.99 37.48 133.31 37.9867 133.523 38.84C133.79 39.6933 133.923 40.6267 133.923 41.64C133.923 42.8133 133.736 43.5867 133.363 43.96C133.683 44.76 133.843 45.5333 133.843 46.28C133.843 47.24 133.603 48.04 133.123 48.68C133.496 49.5867 133.683 50.6533 133.683 51.88C133.683 52.8933 133.523 53.72 133.203 54.36C133.363 54.84 133.443 55.2933 133.443 55.72C133.443 56.68 133.096 57.4533 132.403 58.04C131.71 58.5733 130.883 58.84 129.923 58.84C129.016 58.84 128.243 58.5733 127.603 58.04C126.963 57.4533 126.67 56.68 126.723 55.72C126.456 55.4 126.243 54.8933 126.083 54.2C125.923 53.5067 125.843 52.7867 125.843 52.04C125.843 50.6533 126.136 49.7467 126.723 49.32C126.296 48.6267 126.083 47.5867 126.083 46.2C126.083 44.8133 126.27 43.8 126.643 43.16C126.43 42.9467 126.27 42.44 126.163 41.64C126.056 40.84 126.003 39.96 126.003 39C126.003 38.0933 126.056 37.2933 126.163 36.6C126.27 35.8533 126.43 35.3733 126.643 35.16C126.323 34.84 126.163 33.96 126.163 32.52C126.163 30.8667 126.35 29.6667 126.723 28.92C126.456 28.4933 126.216 27.9333 126.003 27.24C125.79 26.5467 125.683 25.9067 125.683 25.32C125.683 24.7867 125.736 24.4133 125.843 24.2C125.416 22.8133 125.203 21.6933 125.203 20.84C125.203 19.9333 125.416 19 125.843 18.04C125.736 17.24 125.923 16.6267 126.403 16.2C126.883 15.7733 127.576 15.56 128.483 15.56C130.936 15.56 132.163 17.0533 132.163 20.04C132.643 20.36 132.99 20.8133 133.203 21.4C133.47 21.9333 133.603 22.5467 133.603 23.24C133.603 24.36 133.336 25.32 132.803 26.12C133.016 26.44 133.176 26.92 133.283 27.56C133.443 28.2 133.523 28.84 133.523 29.48C133.523 30.3333 133.39 30.92 133.123 31.24C133.336 31.5067 133.443 32.0667 133.443 32.92C133.443 33.72 133.336 34.5733 133.123 35.48C132.963 36.3867 132.776 37 132.563 37.32ZM164.622 58.04C163.982 58.68 162.995 59 161.662 59C160.649 59 159.822 58.84 159.182 58.52C158.222 58.7333 157.369 58.84 156.622 58.84C154.542 58.84 153.049 58.3067 152.142 57.24C151.929 57.2933 151.635 57.32 151.262 57.32C150.035 57.32 149.102 56.76 148.462 55.64C147.929 55.6933 147.235 55.4267 146.382 54.84C145.582 54.2 145.235 53.5867 145.342 53C144.489 52.7867 143.769 52.28 143.182 51.48C142.649 50.6267 142.409 49.6667 142.462 48.6C141.875 48.3867 141.422 47.96 141.102 47.32C140.782 46.68 140.622 45.96 140.622 45.16C140.622 44.3067 140.755 43.6933 141.022 43.32C140.435 42.4133 140.142 41.3733 140.142 40.2C140.142 38.9733 140.515 37.9867 141.262 37.24C140.675 36.8133 140.382 36.1733 140.382 35.32C140.382 34.7867 140.515 34.2533 140.782 33.72C141.049 33.1867 141.395 32.8133 141.822 32.6C141.715 31.8533 141.795 31.16 142.062 30.52C142.382 29.8267 142.809 29.32 143.342 29C143.235 28.84 143.182 28.6 143.182 28.28C143.182 27.8 143.342 27.32 143.662 26.84C144.035 26.36 144.435 26.0667 144.862 25.96C144.809 25.8 144.782 25.5867 144.782 25.32C144.782 24.2 145.209 23.24 146.062 22.44C146.915 21.5867 147.742 21.2133 148.542 21.32C148.542 20.5733 148.862 19.96 149.502 19.48C150.195 18.9467 151.075 18.68 152.142 18.68C152.622 18.68 152.995 18.7067 153.262 18.76C153.635 17.96 154.275 17.32 155.182 16.84C156.089 16.3067 157.022 16.04 157.982 16.04C158.622 16.04 159.155 16.1733 159.582 16.44C160.329 15.8 161.262 15.48 162.382 15.48C163.289 15.48 164.089 15.6933 164.782 16.12C165.529 16.5467 165.982 17.1333 166.142 17.88C166.995 17.88 167.902 18.2 168.862 18.84C169.822 19.4267 170.382 20.04 170.542 20.68C171.822 21.0533 173.049 21.88 174.222 23.16C175.449 24.3867 176.062 25.64 176.062 26.92C176.062 27.1333 176.009 27.4533 175.902 27.88C178.195 28.36 179.235 30.68 179.022 34.84C179.502 35.64 179.742 36.4933 179.742 37.4C179.742 38.4667 179.395 39.5333 178.702 40.6C178.862 41.08 178.942 41.5333 178.942 41.96C178.942 42.6 178.809 43.2133 178.542 43.8C178.275 44.3867 177.929 44.84 177.502 45.16C177.555 46.0133 177.395 46.7067 177.022 47.24C176.702 47.7733 176.089 48.4933 175.182 49.4C175.235 49.6133 175.262 49.9333 175.262 50.36C175.262 51.96 174.355 53 172.542 53.48C172.382 54.3333 171.929 55.0267 171.182 55.56C170.489 56.0933 169.635 56.36 168.622 56.36C167.769 57.5333 166.729 58.12 165.502 58.12C165.129 58.12 164.835 58.0933 164.622 58.04ZM157.102 52.44C157.529 52.0667 158.249 51.88 159.262 51.88C160.009 51.88 160.409 51.9867 160.462 52.2C160.889 51.72 161.422 51.3467 162.062 51.08C162.702 50.8133 163.289 50.7067 163.822 50.76C164.729 49.8533 165.715 49.4 166.782 49.4C167.155 49.4 167.422 49.4267 167.582 49.48C167.529 49 167.662 48.5467 167.982 48.12C168.302 47.64 168.675 47.32 169.102 47.16C169.102 46.4667 169.262 45.88 169.582 45.4C169.955 44.8667 170.409 44.4667 170.942 44.2C170.942 43.1333 171.155 42.28 171.582 41.64C171.422 41.2133 171.342 40.7867 171.342 40.36C171.342 39.7733 171.475 39.2133 171.742 38.68C172.009 38.0933 172.382 37.6133 172.862 37.24C172.329 36.76 172.062 36.1733 172.062 35.48C172.062 34.84 172.249 34.2 172.622 33.56C171.555 32.92 170.835 32.3067 170.462 31.72C170.142 31.08 169.982 29.9333 169.982 28.28C169.502 28.3333 168.995 28.0667 168.462 27.48C167.982 26.8933 167.689 26.2267 167.582 25.48C166.995 25.64 166.275 25.48 165.422 25C164.622 24.4667 164.222 23.8 164.222 23C163.795 23.2133 163.289 23.32 162.702 23.32C161.582 23.32 160.675 22.92 159.982 22.12C159.395 22.7067 158.622 23.1867 157.662 23.56C156.755 23.88 155.955 23.9867 155.262 23.88C155.209 24.4133 154.729 25.0533 153.822 25.8C152.969 26.4933 152.195 26.9467 151.502 27.16C151.662 27.48 151.742 27.8533 151.742 28.28C151.742 28.8133 151.609 29.3467 151.342 29.88C151.075 30.4133 150.702 30.8667 150.222 31.24C150.275 31.9867 150.089 32.7067 149.662 33.4C149.289 34.0933 148.755 34.5733 148.062 34.84C148.169 35.2667 148.222 35.6133 148.222 35.88C148.222 36.6267 148.035 37.2133 147.662 37.64C147.822 38.0133 147.902 38.3867 147.902 38.76C147.902 39.3467 147.609 39.9867 147.022 40.68C148.355 41.5867 149.022 42.8933 149.022 44.6C149.022 45.5067 148.862 46.28 148.542 46.92C149.075 46.9733 149.449 47.1333 149.662 47.4C149.875 47.6667 150.062 48.0933 150.222 48.68C151.555 48.84 152.542 49.48 153.182 50.6C153.769 50.6 154.489 50.7867 155.342 51.16C156.249 51.5333 156.835 51.96 157.102 52.44ZM217.031 49.56C217.191 50.0933 217.271 50.6267 217.271 51.16C217.271 52.2267 216.844 52.9467 215.991 53.32C216.097 54.12 215.777 54.92 215.031 55.72C214.284 56.52 213.591 56.92 212.951 56.92C212.684 57.4 211.884 57.8533 210.551 58.28C209.217 58.7067 207.991 58.92 206.871 58.92C206.071 58.92 205.457 58.76 205.031 58.44C204.284 58.8133 203.217 59 201.831 59C200.604 59 199.484 58.8133 198.471 58.44C197.511 58.0667 196.924 57.5067 196.711 56.76C195.644 56.92 194.444 56.6 193.111 55.8C191.831 55 191.004 54.1733 190.631 53.32C189.671 53.0533 188.871 52.5467 188.231 51.8C187.644 51.0533 187.324 50.1733 187.271 49.16C186.951 48.68 186.791 48.2 186.791 47.72C186.791 46.9733 187.031 46.3067 187.511 45.72C188.044 45.1333 188.657 44.84 189.351 44.84C190.044 44.84 190.711 45.2667 191.351 46.12C192.311 46.0133 193.164 46.3333 193.911 47.08C194.711 47.8267 195.111 48.5733 195.111 49.32C195.271 49.32 195.671 49.3733 196.311 49.48C197.004 49.5333 197.617 49.72 198.151 50.04C198.684 50.36 199.057 50.8133 199.271 51.4C200.231 51.4 201.164 51.5333 202.071 51.8C203.031 52.0133 203.591 52.28 203.751 52.6C204.177 52.3333 204.791 52.12 205.591 51.96C206.444 51.7467 207.164 51.64 207.751 51.64C207.911 51.4267 208.311 51.2133 208.951 51C209.591 50.7867 210.124 50.6533 210.551 50.6C210.284 50.2267 210.151 49.6667 210.151 48.92C210.151 47.8 210.497 47 211.191 46.52C210.551 46.3067 210.044 45.9867 209.671 45.56C209.297 45.08 209.137 44.5467 209.191 43.96C208.764 44.0667 208.444 44.12 208.231 44.12C207.217 44.12 206.391 43.72 205.751 42.92C204.684 43.0267 203.617 42.7867 202.551 42.2C201.537 41.6133 200.791 40.84 200.311 39.88C199.937 40.04 199.537 40.12 199.111 40.12C198.204 40.12 197.244 39.8533 196.231 39.32C195.271 38.7333 194.657 38.1733 194.391 37.64C193.644 37.8533 192.764 37.6133 191.751 36.92C190.737 36.2267 190.231 35.4533 190.231 34.6C189.591 34.28 189.084 33.7467 188.711 33C188.337 32.2 188.151 31.48 188.151 30.84C188.151 30.36 188.257 30.04 188.471 29.88C188.204 29.3467 188.071 28.8133 188.071 28.28C188.071 27.32 188.391 26.4933 189.031 25.8C188.871 25.2133 188.791 24.68 188.791 24.2C188.791 23.2933 188.977 22.5467 189.351 21.96C189.777 21.32 190.284 21.0533 190.871 21.16C190.764 20.3067 190.951 19.56 191.431 18.92C191.964 18.28 192.604 17.8267 193.351 17.56C194.151 17.24 194.844 17.1333 195.431 17.24C195.751 16.76 196.177 16.3867 196.711 16.12C197.244 15.8533 197.777 15.72 198.311 15.72C199.217 15.72 199.857 15.9867 200.231 16.52C200.284 16.2533 200.471 16.04 200.791 15.88C201.164 15.72 201.591 15.64 202.071 15.64C202.497 15.64 202.924 15.72 203.351 15.88C203.777 16.04 204.097 16.2267 204.311 16.44C204.631 16.12 205.191 15.96 205.991 15.96C206.631 15.96 207.271 16.0933 207.911 16.36C208.551 16.5733 208.977 16.8933 209.191 17.32C209.511 17.16 209.857 17.08 210.231 17.08C210.871 17.08 211.457 17.32 211.991 17.8C212.577 18.2267 212.977 18.7867 213.191 19.48C213.991 19.3733 214.817 19.64 215.671 20.28C216.524 20.92 216.844 21.56 216.631 22.2C218.071 23 218.791 24.0933 218.791 25.48C218.791 26.3333 218.497 27.08 217.911 27.72C217.324 28.36 216.577 28.68 215.671 28.68C214.871 28.6267 214.204 28.4133 213.671 28.04C213.137 27.6667 212.817 27.2133 212.711 26.68C212.017 26.5733 211.351 26.3067 210.711 25.88C210.124 25.4 209.804 24.7867 209.751 24.04C208.737 24.1467 207.964 24.04 207.431 23.72C206.951 23.4 206.524 22.8933 206.151 22.2C205.777 22.4667 205.297 22.6 204.711 22.6C204.124 22.6 203.484 22.44 202.791 22.12C202.417 22.44 201.937 22.7067 201.351 22.92C200.817 23.1333 200.284 23.24 199.751 23.24C199.164 23.24 198.657 23.1067 198.231 22.84C198.337 23.48 198.177 23.9867 197.751 24.36C197.324 24.7333 196.737 24.8667 195.991 24.76C196.151 25.1333 196.231 25.5333 196.231 25.96C196.231 26.92 195.804 27.72 194.951 28.36C195.537 28.6267 195.964 29.08 196.231 29.72C196.497 30.3067 196.604 30.8933 196.551 31.48L197.191 31.4C198.791 31.4 199.804 31.9067 200.231 32.92L200.871 32.84C201.724 32.84 202.524 33.0533 203.271 33.48C204.071 33.9067 204.657 34.6267 205.031 35.64C205.884 35.5867 206.711 35.6933 207.511 35.96C208.311 36.1733 208.871 36.6 209.191 37.24C209.617 37.08 210.017 37 210.391 37C211.297 37 212.097 37.2667 212.791 37.8C213.537 38.3333 213.937 38.9467 213.991 39.64C214.471 39.64 214.897 39.9067 215.271 40.44C215.697 40.9733 215.857 41.5867 215.751 42.28C216.124 42.2267 216.471 42.44 216.791 42.92C217.111 43.3467 217.271 43.8533 217.271 44.44C217.271 44.76 217.191 45.0533 217.031 45.32C217.777 45.8533 218.151 46.5733 218.151 47.48C218.151 47.96 218.044 48.3867 217.831 48.76C217.671 49.1333 217.404 49.4 217.031 49.56ZM227.532 1.96C226.839 2.28 226.279 2.73333 225.852 3.32C225.425 3.90666 225.212 4.52 225.212 5.16C225.212 6.01333 225.559 6.86667 226.252 7.72C226.145 8.41333 226.519 9.08 227.372 9.72C228.225 10.36 229.159 10.68 230.172 10.68C230.865 10.68 231.479 10.4933 232.012 10.12C233.505 9.32 234.252 8.30666 234.252 7.08C234.252 6.28 233.932 5.37333 233.292 4.36C233.345 3.29333 233.025 2.46666 232.332 1.88C231.692 1.24 230.919 0.919999 230.012 0.919999C228.999 0.919999 228.172 1.26666 227.532 1.96ZM232.732 37.32C233.159 37.48 233.479 37.9867 233.692 38.84C233.959 39.6933 234.092 40.6267 234.092 41.64C234.092 42.8133 233.905 43.5867 233.532 43.96C233.852 44.76 234.012 45.5333 234.012 46.28C234.012 47.24 233.772 48.04 233.292 48.68C233.665 49.5867 233.852 50.6533 233.852 51.88C233.852 52.8933 233.692 53.72 233.372 54.36C233.532 54.84 233.612 55.2933 233.612 55.72C233.612 56.68 233.265 57.4533 232.572 58.04C231.879 58.5733 231.052 58.84 230.092 58.84C229.185 58.84 228.412 58.5733 227.772 58.04C227.132 57.4533 226.839 56.68 226.892 55.72C226.625 55.4 226.412 54.8933 226.252 54.2C226.092 53.5067 226.012 52.7867 226.012 52.04C226.012 50.6533 226.305 49.7467 226.892 49.32C226.465 48.6267 226.252 47.5867 226.252 46.2C226.252 44.8133 226.439 43.8 226.812 43.16C226.599 42.9467 226.439 42.44 226.332 41.64C226.225 40.84 226.172 39.96 226.172 39C226.172 38.0933 226.225 37.2933 226.332 36.6C226.439 35.8533 226.599 35.3733 226.812 35.16C226.492 34.84 226.332 33.96 226.332 32.52C226.332 30.8667 226.519 29.6667 226.892 28.92C226.625 28.4933 226.385 27.9333 226.172 27.24C225.959 26.5467 225.852 25.9067 225.852 25.32C225.852 24.7867 225.905 24.4133 226.012 24.2C225.585 22.8133 225.372 21.6933 225.372 20.84C225.372 19.9333 225.585 19 226.012 18.04C225.905 17.24 226.092 16.6267 226.572 16.2C227.052 15.7733 227.745 15.56 228.652 15.56C231.105 15.56 232.332 17.0533 232.332 20.04C232.812 20.36 233.159 20.8133 233.372 21.4C233.639 21.9333 233.772 22.5467 233.772 23.24C233.772 24.36 233.505 25.32 232.972 26.12C233.185 26.44 233.345 26.92 233.452 27.56C233.612 28.2 233.692 28.84 233.692 29.48C233.692 30.3333 233.559 30.92 233.292 31.24C233.505 31.5067 233.612 32.0667 233.612 32.92C233.612 33.72 233.505 34.5733 233.292 35.48C233.132 36.3867 232.945 37 232.732 37.32ZM266.391 52.12C266.444 51.8533 266.577 51.6667 266.791 51.56C267.057 51.4533 267.351 51.3733 267.671 51.32C267.884 51.2667 268.151 51.24 268.471 51.24C269.377 51.24 270.097 51.5867 270.631 52.28C271.217 52.92 271.511 53.6933 271.511 54.6C271.511 55.2933 271.324 55.9067 270.951 56.44C270.577 56.92 270.017 57.2667 269.271 57.48C268.151 58.44 266.817 58.84 265.271 58.68C264.844 59.0533 264.284 59.24 263.591 59.24C262.631 59.24 261.751 58.8933 260.951 58.2C260.417 58.0933 259.777 57.8267 259.031 57.4C258.284 56.92 257.911 56.4933 257.911 56.12C257.164 56.0133 256.391 55.5867 255.591 54.84C254.844 54.0933 254.577 53.1867 254.791 52.12C254.204 51.48 253.857 50.8133 253.751 50.12C253.111 49.8 252.631 49.32 252.311 48.68C252.044 48.04 251.964 47.3733 252.071 46.68C251.377 46.04 251.031 45.08 251.031 43.8C251.031 43.32 251.084 42.7067 251.191 41.96C250.444 41.3733 250.071 40.5733 250.071 39.56C250.071 38.6533 250.364 37.9067 250.951 37.32C250.311 36.68 249.991 35.8533 249.991 34.84C249.991 34.4667 250.097 34.0133 250.311 33.48C249.991 32.84 249.831 32.2 249.831 31.56C249.831 30.7067 250.071 30.04 250.551 29.56C250.231 28.92 250.071 28.2267 250.071 27.48C250.071 26.84 250.151 26.28 250.311 25.8C250.524 25.2667 250.764 24.8667 251.031 24.6C250.444 23.9067 250.151 23.16 250.151 22.36C250.151 21.9333 250.231 21.48 250.391 21C249.911 21.16 249.377 21.24 248.791 21.24C247.884 21.24 247.217 21.0533 246.791 20.68C246.151 20.84 245.591 20.92 245.111 20.92C244.151 20.92 243.164 20.6267 242.151 20.04C241.617 20.36 241.057 20.52 240.471 20.52C239.617 20.52 238.924 20.1733 238.391 19.48C237.804 18.7333 237.511 17.9067 237.511 17C237.511 16.2 237.777 15.5333 238.311 15C238.791 14.4133 239.511 14.0933 240.471 14.04C241.111 13.7733 241.697 13.64 242.231 13.64C243.297 13.64 244.231 13.9067 245.031 14.44C245.724 14.1733 246.497 14.04 247.351 14.04C248.097 14.04 248.684 14.1733 249.111 14.44C249.164 14.2267 249.377 14.04 249.751 13.88C250.177 13.6667 250.524 13.5867 250.791 13.64C250.577 13.16 250.471 12.52 250.471 11.72C250.471 10.76 250.684 10.2533 251.111 10.2C250.737 9.66667 250.551 8.89333 250.551 7.88C250.551 6.49333 250.897 5.53333 251.591 5C251.537 3.93333 251.751 3.13333 252.231 2.6C252.711 2.06666 253.324 1.8 254.071 1.8C254.817 1.8 255.511 2.06666 256.151 2.6C256.791 3.08 257.111 3.72 257.111 4.52C257.111 5.05333 256.897 5.66667 256.471 6.36C257.004 6.84 257.271 7.64 257.271 8.76C257.271 9.24 257.191 9.74667 257.031 10.28C256.924 10.76 256.764 11.1333 256.551 11.4C256.871 11.6133 257.031 12.04 257.031 12.68C257.031 13.2133 256.897 13.9333 256.631 14.84C257.111 14.68 257.617 14.6 258.151 14.6C258.951 14.6 259.564 14.7867 259.991 15.16C260.524 14.8933 260.951 14.76 261.271 14.76C261.804 14.76 262.231 14.9733 262.551 15.4C262.924 15.1333 263.377 15 263.911 15C264.657 15 265.244 15.2933 265.671 15.88C266.684 15.88 267.431 16.12 267.911 16.6C268.444 17.0267 268.711 17.5867 268.711 18.28C268.711 19.1333 268.364 19.96 267.671 20.76C267.031 21.5067 266.284 21.88 265.431 21.88C264.951 21.88 264.471 21.72 263.991 21.4C263.457 21.8267 262.764 22.04 261.911 22.04C261.111 22.04 260.444 21.8533 259.911 21.48C259.217 21.7467 258.711 21.88 258.391 21.88C257.964 21.88 257.457 21.6933 256.871 21.32C257.351 21.96 257.591 22.6533 257.591 23.4C257.591 24.2 257.271 24.92 256.631 25.56C257.111 26.2 257.351 27 257.351 27.96C257.351 28.8133 257.111 29.6133 256.631 30.36C257.271 30.7867 257.591 31.48 257.591 32.44C257.591 33.24 257.351 33.9333 256.871 34.52C257.404 35.1067 257.671 36.1467 257.671 37.64C257.671 38.28 257.591 38.8133 257.431 39.24C257.804 39.7733 257.991 40.3333 257.991 40.92C257.991 41.24 257.911 41.6667 257.751 42.2C257.644 42.68 257.564 43.08 257.511 43.4C258.151 44.1467 258.471 44.8667 258.471 45.56C259.377 46.2533 259.831 47.08 259.831 48.04C260.897 48.6267 261.431 49.6133 261.431 51C261.537 51.16 261.644 51.2667 261.751 51.32C261.857 51.3733 261.937 51.4267 261.991 51.48L262.551 51.4C263.351 51.4 263.991 51.64 264.471 52.12C264.897 52.0133 265.244 51.96 265.511 51.96C265.671 51.96 265.964 52.0133 266.391 52.12ZM302.256 44.28C302.043 44.9733 301.59 45.5867 300.896 46.12C301.003 48.2533 300.443 49.5867 299.216 50.12C299.11 50.9733 298.736 51.88 298.096 52.84C297.456 53.8 296.763 54.44 296.016 54.76C296.016 54.9733 295.963 55.4267 295.856 56.12C295.803 56.76 295.643 57.2933 295.376 57.72C295.163 58.1467 294.816 58.5733 294.336 59C294.603 60.8667 293.723 62.7333 291.696 64.6C291.643 65.88 291.216 66.8933 290.416 67.64C289.67 68.44 288.763 68.92 287.696 69.08C287.59 69.8267 287.03 70.5467 286.016 71.24C285.056 71.9867 284.123 72.36 283.216 72.36C283.003 72.9467 282.123 73.5333 280.576 74.12C279.083 74.76 278.096 74.92 277.616 74.6C276.336 74.7067 275.323 74.3867 274.576 73.64C273.83 72.8933 273.456 72.0133 273.456 71C273.456 70.2533 273.67 69.6133 274.096 69.08C274.523 68.5467 275.136 68.28 275.936 68.28C276.203 68.28 276.416 68.3067 276.576 68.36C278.07 67.24 279.27 66.68 280.176 66.68C280.496 66.68 280.736 66.7067 280.896 66.76C281.003 66.12 281.376 65.5067 282.016 64.92C282.656 64.3867 283.403 63.96 284.256 63.64C284.256 63.1067 284.47 62.5467 284.896 61.96C285.323 61.3733 285.83 60.8933 286.416 60.52C286.31 60.2 286.256 59.96 286.256 59.8C286.256 59 286.603 58.12 287.296 57.16C287.99 56.1467 288.683 55.5067 289.376 55.24C288.15 54.6 287.536 53.6133 287.536 52.28C287.003 52.2267 286.496 51.8533 286.016 51.16C285.59 50.4667 285.376 49.72 285.376 48.92C285.376 48.44 285.51 47.9867 285.776 47.56C284.976 47.2933 284.363 46.8667 283.936 46.28C283.563 45.6933 283.376 45 283.376 44.2C283.376 43.6133 283.483 43.0267 283.696 42.44C282.95 42.0133 282.363 41.56 281.936 41.08C281.563 40.6 281.403 40.04 281.456 39.4C280.656 38.8667 280.256 38.04 280.256 36.92C280.256 36.3867 280.336 35.88 280.496 35.4C279.163 33.96 278.496 32.4133 278.496 30.76C278.496 30.28 278.523 29.9067 278.576 29.64C277.83 29.2667 277.27 28.76 276.896 28.12C276.523 27.4267 276.336 26.6533 276.336 25.8C276.336 25 276.496 24.2533 276.816 23.56C275.43 22.6 274.736 21.5333 274.736 20.36C274.736 19.0267 275.323 17.96 276.496 17.16C276.976 16.84 277.51 16.68 278.096 16.68C278.896 16.68 279.616 16.9733 280.256 17.56C280.95 18.1467 281.456 18.8667 281.776 19.72C282.256 20.1467 282.656 20.8133 282.976 21.72C283.296 22.6267 283.456 23.48 283.456 24.28C283.456 24.76 283.43 25.08 283.376 25.24C284.976 26.9467 285.776 28.6 285.776 30.2C285.776 30.4133 285.723 30.7867 285.616 31.32C286.31 31.6933 286.816 32.2533 287.136 33C287.456 33.6933 287.563 34.4133 287.456 35.16C287.99 35.5867 288.363 36.12 288.576 36.76C288.843 37.4 288.923 38.04 288.816 38.68C289.296 38.68 289.723 39.0533 290.096 39.8C290.523 40.4933 290.683 41.2133 290.576 41.96C291.27 42.3333 291.723 42.84 291.936 43.48C292.15 44.0667 292.203 44.7867 292.096 45.64C292.79 45.8533 293.136 46.52 293.136 47.64C293.296 46.7333 293.483 46.0667 293.696 45.64C293.91 45.2133 294.23 44.76 294.656 44.28C294.55 43.7467 294.496 43.4 294.496 43.24C294.496 42.6533 294.603 42.2 294.816 41.88C295.03 41.5067 295.323 41.2933 295.696 41.24C295.483 40.2267 295.75 39.24 296.496 38.28C296.336 37.96 296.256 37.64 296.256 37.32C296.256 36.9467 296.416 36.5467 296.736 36.12C297.11 35.64 297.35 35.32 297.456 35.16C297.136 34.2 296.976 33.4 296.976 32.76C296.976 32.2267 297.083 31.72 297.296 31.24C297.51 30.76 297.856 30.1733 298.336 29.48C298.016 28.84 297.856 27.88 297.856 26.6C297.856 24.8933 298.203 23.3467 298.896 21.96C298.683 21.2133 298.576 20.6267 298.576 20.2C298.576 19.56 298.736 19 299.056 18.52C299.056 17.24 299.456 16.2267 300.256 15.48C301.056 14.7333 301.963 14.36 302.976 14.36C303.83 14.36 304.55 14.68 305.136 15.32C305.776 15.9067 306.07 16.76 306.016 17.88C306.39 18.6267 306.576 19.5333 306.576 20.6C306.576 22.52 306.123 24.2 305.216 25.64C305.43 26.3333 305.536 27.08 305.536 27.88C305.536 29.2133 305.056 30.4933 304.096 31.72C304.15 32.1467 304.256 32.6533 304.416 33.24C304.576 33.8267 304.656 34.3067 304.656 34.68C304.656 35.48 304.39 36.1733 303.856 36.76C304.123 37.5067 303.563 39.08 302.176 41.48C302.39 42.12 302.496 42.6267 302.496 43C302.496 43.4267 302.416 43.8533 302.256 44.28Z" fill="black"/>
</svg>
