<svg width="304" height="65" viewBox="0 0 304 65" fill="none" xmlns="http://www.w3.org/2000/svg">
<path d="M15.3828 23.7812C13.013 26.3073 11.125 27.5703 9.71875 27.5703C8.15625 27.5703 6.76302 26.5677 5.53906 24.5625C4.34115 22.5833 3.74219 20.487 3.74219 18.2734C3.74219 16.0599 4.26302 14.1328 5.30469 12.4922C6.3724 10.8255 7.77865 9.35417 9.52344 8.07812C11.2682 6.80208 13.2604 5.69531 15.5 4.75781C17.7656 3.82031 20.1094 3.05208 22.5312 2.45312C27.3229 1.22917 31.3464 0.617188 34.6016 0.617188C37.8828 0.617188 40.6302 0.760417 42.8438 1.04688C45.0573 1.30729 47.1927 1.75 49.25 2.375C51.3073 3 53.2474 3.80729 55.0703 4.79688C56.8932 5.76042 58.4948 6.93229 59.875 8.3125C62.7917 11.3073 64.25 15.0443 64.25 19.5234C64.25 24.1589 62.7917 28.9115 59.875 33.7812C57.0625 38.4948 53.4167 42.401 48.9375 45.5C44.1719 48.7552 39.3672 50.3828 34.5234 50.3828C32.1536 50.3828 30.0703 49.7969 28.2734 48.625C27.4141 48.026 26.9714 47.3359 26.9453 46.5547C26.9193 45.7474 26.9323 45.0182 26.9844 44.3672C27.1927 41.6849 27.7786 38.5339 28.7422 34.9141C30.6432 35.6953 32.6745 36.0859 34.8359 36.0859C36.9974 36.0859 38.7943 35.8646 40.2266 35.4219C41.6589 34.9531 43.0911 34.3021 44.5234 33.4688C45.9818 32.6354 47.375 31.6458 48.7031 30.5C50.0573 29.3542 51.2552 28.0781 52.2969 26.6719C54.5625 23.599 55.6953 20.6823 55.6953 17.9219C55.6953 15.1615 55.0573 12.987 53.7812 11.3984C52.5312 9.78385 50.9167 8.49479 48.9375 7.53125C45.2135 5.68229 40.6172 4.75781 35.1484 4.75781C30.4349 4.75781 25.6172 5.70833 20.6953 7.60938C17.2578 8.96354 14.7839 10.6823 13.2734 12.7656C12.4922 13.8594 12.1016 15.0573 12.1016 16.3594C12.1016 19.3021 13.1953 21.776 15.3828 23.7812ZM0.773438 60.4219C2.10156 59.0156 3.66406 56.5807 5.46094 53.1172C7.25781 49.6276 8.79427 46.6068 10.0703 44.0547C11.3464 41.5026 12.6745 38.8854 14.0547 36.2031C15.4609 33.5208 16.8932 30.8646 18.3516 28.2344C19.8359 25.5781 21.3333 23.0781 22.8438 20.7344C26.2031 15.5781 29.276 11.9583 32.0625 9.875C32.375 9.61458 32.7135 9.48438 33.0781 9.48438C33.4688 9.48438 33.8594 9.54948 34.25 9.67969C35.1094 9.96615 35.8646 10.4089 36.5156 11.0078C33.2604 13.612 29.901 20.4479 26.4375 31.5156C25.4479 34.6146 24.4844 37.7135 23.5469 40.8125C22.6094 43.8854 21.6979 46.8542 20.8125 49.7188C19.9531 52.5833 19.0938 55.1094 18.2344 57.2969C16.3854 62.1146 14.7318 64.5234 13.2734 64.5234C8.66406 64.5234 5.05729 63.5859 2.45312 61.7109C1.80208 61.2422 1.24219 60.8125 0.773438 60.4219ZM82.8438 56.75C79.276 60.9167 74.9271 63 69.7969 63C66.5417 63 63.9375 62.0234 61.9844 60.0703C60.0573 58.1432 59.0938 55.6042 59.0938 52.4531C59.0938 48.4688 60.6562 44.6016 63.7812 40.8516C66.8021 37.2057 70.7604 34.237 75.6562 31.9453C80.7344 29.5755 85.9818 28.3906 91.3984 28.3906C93.4557 28.3906 94.9271 28.7161 95.8125 29.3672C96.5156 28.5339 97.1406 28.0521 97.6875 27.9219C98.2604 27.7656 98.7031 27.6875 99.0156 27.6875C100.005 27.6875 101.06 27.8307 102.18 28.1172C102.076 28.4557 101.854 29.0417 101.516 29.875C101.177 30.6823 100.799 31.6458 100.383 32.7656C99.9661 33.8854 99.5234 35.1094 99.0547 36.4375C97.362 41.1771 96.5156 44.7318 96.5156 47.1016C96.5156 49.4453 97.2578 50.6172 98.7422 50.6172C100.669 50.6172 102.818 49.7448 105.188 48C107.297 46.4115 109.146 44.4323 110.734 42.0625C111.906 41.9844 112.492 42.4661 112.492 43.5078C112.492 44.3932 111.945 45.7474 110.852 47.5703C109.784 49.3932 108.742 50.9688 107.727 52.2969C106.711 53.625 105.578 54.9271 104.328 56.2031C103.078 57.4792 101.75 58.625 100.344 59.6406C97.1927 61.8802 94.1198 63 91.125 63C87.3229 63 84.7708 61.8542 83.4688 59.5625C83.0521 58.8594 82.8438 58.2474 82.8438 57.7266C82.8438 57.1797 82.8438 56.8542 82.8438 56.75ZM71.6719 46.0859C71.6719 49.1068 72.9349 50.6172 75.4609 50.6172C78.2474 50.6172 81.5286 48.3646 85.3047 43.8594C87.3099 41.4635 89.0547 39.1719 90.5391 36.9844C92.0495 34.7969 93.1953 33.1302 93.9766 31.9844C87.4661 32.0365 82.0625 33.5208 77.7656 36.4375C73.7031 39.1979 71.6719 42.4141 71.6719 46.0859ZM138.898 30.7344C137.466 30.6302 136.073 30.6562 134.719 30.8125C134.719 31.0729 134.719 31.5286 134.719 32.1797C134.719 32.8307 134.81 33.8073 134.992 35.1094C135.174 36.4115 135.396 37.8438 135.656 39.4062C136.385 43.8333 136.75 46.8281 136.75 48.3906C136.75 49.9531 136.646 51.2292 136.438 52.2188C140.37 51.2292 143.977 48.9635 147.258 45.4219C148.247 44.3542 149.133 43.2344 149.914 42.0625C150.669 42.0104 151.151 42.1536 151.359 42.4922C151.568 42.8047 151.672 43.1432 151.672 43.5078C151.672 43.8724 151.372 44.7578 150.773 46.1641C150.174 47.5703 149.029 49.3411 147.336 51.4766C145.669 53.612 143.586 55.5391 141.086 57.2578C135.435 61.138 128.638 63.1042 120.695 63.1562C119.966 63.2083 118.911 63.2344 117.531 63.2344C116.151 63.2344 114.628 62.8568 112.961 62.1016C111.294 61.3203 109.875 60.2656 108.703 58.9375C106.281 56.2031 105.07 52.7005 105.07 48.4297C105.07 46.6589 106.411 44.6667 109.094 42.4531C109.849 41.8281 110.604 41.2812 111.359 40.8125C113.964 36.9062 117.661 33.5208 122.453 30.6562C127.271 27.7917 131.776 26.3594 135.969 26.3594C137.479 26.3594 138.521 26.776 139.094 27.6094C139.719 28.4948 139.654 29.5365 138.898 30.7344ZM119.25 48.8984C119.823 49.3411 120.461 49.5625 121.164 49.5625C121.867 49.5625 122.557 49.2891 123.234 48.7422C123.911 48.1953 124.523 47.4661 125.07 46.5547C125.643 45.6432 126.138 44.5885 126.555 43.3906C126.997 42.1927 127.388 40.9427 127.727 39.6406C128.299 37.4531 128.872 34.862 129.445 31.8672C125.044 33.2214 121.151 35.3698 117.766 38.3125C116.75 39.224 115.865 40.1484 115.109 41.0859C116.021 44.8359 117.401 47.4401 119.25 48.8984ZM178.117 30.7344C176.685 30.6302 175.292 30.6562 173.938 30.8125C173.938 31.0729 173.938 31.5286 173.938 32.1797C173.938 32.8307 174.029 33.8073 174.211 35.1094C174.393 36.4115 174.615 37.8438 174.875 39.4062C175.604 43.8333 175.969 46.8281 175.969 48.3906C175.969 49.9531 175.865 51.2292 175.656 52.2188C179.589 51.2292 183.195 48.9635 186.477 45.4219C187.466 44.3542 188.352 43.2344 189.133 42.0625C189.888 42.0104 190.37 42.1536 190.578 42.4922C190.786 42.8047 190.891 43.1432 190.891 43.5078C190.891 43.8724 190.591 44.7578 189.992 46.1641C189.393 47.5703 188.247 49.3411 186.555 51.4766C184.888 53.612 182.805 55.5391 180.305 57.2578C174.654 61.138 167.857 63.1042 159.914 63.1562C159.185 63.2083 158.13 63.2344 156.75 63.2344C155.37 63.2344 153.846 62.8568 152.18 62.1016C150.513 61.3203 149.094 60.2656 147.922 58.9375C145.5 56.2031 144.289 52.7005 144.289 48.4297C144.289 46.6589 145.63 44.6667 148.312 42.4531C149.068 41.8281 149.823 41.2812 150.578 40.8125C153.182 36.9062 156.88 33.5208 161.672 30.6562C166.49 27.7917 170.995 26.3594 175.188 26.3594C176.698 26.3594 177.74 26.776 178.312 27.6094C178.938 28.4948 178.872 29.5365 178.117 30.7344ZM158.469 48.8984C159.042 49.3411 159.68 49.5625 160.383 49.5625C161.086 49.5625 161.776 49.2891 162.453 48.7422C163.13 48.1953 163.742 47.4661 164.289 46.5547C164.862 45.6432 165.357 44.5885 165.773 43.3906C166.216 42.1927 166.607 40.9427 166.945 39.6406C167.518 37.4531 168.091 34.862 168.664 31.8672C164.263 33.2214 160.37 35.3698 156.984 38.3125C155.969 39.224 155.083 40.1484 154.328 41.0859C155.24 44.8359 156.62 47.4401 158.469 48.8984ZM214.875 19.9141C213.807 20.4349 212.648 20.8385 211.398 21.125C210.174 21.3854 209.107 21.5156 208.195 21.5156C207.284 21.5156 206.464 21.4115 205.734 21.2031C205.005 20.9688 204.354 20.6432 203.781 20.2266C202.531 19.3151 201.906 18.2214 201.906 16.9453C201.906 15.6693 202.128 14.5885 202.57 13.7031C203.039 12.8177 203.703 12.0625 204.562 11.4375C206.411 10.0833 208.625 9.40625 211.203 9.40625C213.807 9.40625 215.695 9.9401 216.867 11.0078C218.065 12.0755 218.664 13.2995 218.664 14.6797C218.664 16.0599 218.299 17.1406 217.57 17.9219C216.841 18.7031 215.943 19.3672 214.875 19.9141ZM184.797 58.4688C184.25 57.2969 183.977 55.8646 183.977 54.1719C183.977 52.4531 184.341 50.6432 185.07 48.7422C185.826 46.8411 186.776 44.9531 187.922 43.0781C189.094 41.1771 190.396 39.3542 191.828 37.6094C193.26 35.8385 194.68 34.276 196.086 32.9219C199.185 29.9792 201.464 28.5078 202.922 28.5078C203.547 28.5078 204.237 28.7812 204.992 29.3281C205.773 29.849 206.268 30.2396 206.477 30.5C202.544 34.7188 200.057 38.7943 199.016 42.7266C198.677 43.9245 198.508 45.0964 198.508 46.2422C198.508 47.362 198.938 48.3776 199.797 49.2891C200.656 50.1745 201.724 50.6172 203 50.6172C204.276 50.6172 205.461 50.3828 206.555 49.9141C207.674 49.4193 208.768 48.7812 209.836 48C211.945 46.4115 213.794 44.4323 215.383 42.0625C216.555 41.9844 217.141 42.4661 217.141 43.5078C217.141 44.3672 216.594 45.7214 215.5 47.5703C214.432 49.4193 213.365 51.0208 212.297 52.375C211.229 53.7031 210.005 55.0182 208.625 56.3203C207.271 57.6224 205.786 58.7812 204.172 59.7969C200.552 62.0885 196.828 63.2344 193 63.2344C188.964 63.2344 186.229 61.6458 184.797 58.4688ZM222.961 63.1953L222.18 63.2344C218.065 63.2344 214.927 62.2188 212.766 60.1875C210.734 58.2865 209.719 55.7083 209.719 52.4531C209.719 47.974 211.503 43.6901 215.07 39.6016C218.534 35.6432 222.74 32.8698 227.688 31.2812C227.531 30.1094 227.961 29.1458 228.977 28.3906C229.706 27.8438 230.904 27.5703 232.57 27.5703C234.263 27.5703 235.891 27.7266 237.453 28.0391C239.016 28.3516 240.591 29.0417 242.18 30.1094C245.617 32.375 247.336 35.4219 247.336 39.25C247.336 43.3906 246.307 47.3229 244.25 51.0469C248.729 50.0833 252.648 47.0885 256.008 42.0625C257.18 41.9844 257.766 42.4661 257.766 43.5078C257.766 43.9245 257.635 44.4323 257.375 45.0312C253.833 53.4427 246.75 59.0156 236.125 61.75C232.323 62.7396 228 63.2344 223.156 63.2344L222.961 63.1953ZM222.297 46.0859C222.297 49.1068 223.56 50.6172 226.086 50.6172C228.221 50.6172 230.37 49.3281 232.531 46.75C234.797 44.0677 235.93 41.3464 235.93 38.5859C235.93 35.7734 234.576 33.9115 231.867 33C227.206 34.3021 224.224 37.2188 222.922 41.75C222.505 43.1302 222.297 44.5755 222.297 46.0859ZM263.664 61.5156C263.664 62.5573 262.792 63.0781 261.047 63.0781C256.724 63.0781 253.651 61.3594 251.828 57.9219C251.151 56.6979 250.812 55.2396 250.812 53.5469C250.812 51.8542 251.06 50.1745 251.555 48.5078C252.049 46.8151 252.714 45.1484 253.547 43.5078C254.38 41.8672 255.344 40.2786 256.438 38.7422C257.531 37.2057 258.69 35.7865 259.914 34.4844C262.492 31.724 264.94 29.7839 267.258 28.6641C267.883 28.3776 268.443 28.2344 268.938 28.2344C269.458 28.2344 269.888 28.2474 270.227 28.2734C271.086 28.3516 271.724 28.6771 272.141 29.25C270.552 32.6094 269.25 35.6823 268.234 38.4688C272.87 33.9115 278.26 30.7995 284.406 29.1328C286.411 28.5859 288.156 28.3125 289.641 28.3125C291.151 28.3125 292.023 28.599 292.258 29.1719C292.492 29.7188 292.609 30.2266 292.609 30.6953C292.609 31.1641 292.544 31.8021 292.414 32.6094C292.284 33.3906 291.945 34.4844 291.398 35.8906C290.852 37.2969 290.292 38.7161 289.719 40.1484C288.26 43.7943 287.531 46.2812 287.531 47.6094C287.531 49.901 288.352 51.0469 289.992 51.0469C292.805 51.0469 295.904 49.1979 299.289 45.5C300.279 44.4323 301.177 43.2865 301.984 42.0625C303.156 41.9844 303.742 42.4661 303.742 43.5078C303.742 44.3411 303.208 45.7214 302.141 47.6484C301.073 49.5495 300.044 51.2031 299.055 52.6094C298.091 53.9896 296.997 55.3438 295.773 56.6719C294.549 58 293.208 59.1979 291.75 60.2656C288.573 62.5833 285.474 63.7422 282.453 63.7422C279.432 63.7422 277.141 62.9479 275.578 61.3594C274.016 59.7708 273.234 57.4531 273.234 54.4062C273.234 49.901 275.578 44.5104 280.266 38.2344C281.698 36.3333 282.323 35.3828 282.141 35.3828C280.161 35.3828 277.375 36.6328 273.781 39.1328C270.214 41.6328 267.492 44.2891 265.617 47.1016C264.419 51.9714 263.768 56.776 263.664 61.5156Z" fill="black"/>
</svg>
